<?xml version="1.0" encoding="UTF-8"?>
<svg xmlns="http://www.w3.org/2000/svg" id="_Слой_1" data-name="Слой 1" viewBox="0 0 2846.49 765.7">
  <defs>
    <style>
      .cls-1 {
        fill: #fff;
      }

      .cls-2 {
        fill: #eed936;
      }

      .cls-3 {
        fill: #cecece;
      }
    </style>
  </defs>
  <g>
    <path class="cls-1" d="M194.53,690.14l-1.66,10.38c-30.15-4.78-51.16-16-62.45-33.34-7.64-11.72-9.29-23.71-10.73-34.27-1.66-12.03-2.96-21.54-11.77-28.97-10.13-8.52-23.47-8.44-35.24-8.34-12.66,.09-25.2,2.95-37.4,8.51l14.38,6.78L0,621.77l27.83-42.54,1.25,16.17c14.12-6.74,28.73-10.21,43.5-10.31,12.91-.13,29-.21,42.11,10.82,11.91,10.03,13.69,23.01,15.42,35.57,1.37,9.94,2.78,20.21,9.13,29.97,9.61,14.74,28.21,24.4,55.3,28.7Z"></path>
    <g>
      <path class="cls-1" d="M259.72,620.08c-1.41,31.76-6.86,60.49-14.08,85.64-.1,.49-.26,1.17-.56,1.94,0,0-.91,2.97-3.44,4.85-5.03,3.74-13.98,1.94-18.53-2.02-8.45-7.34-4.16-25.78,4.39-62.67,2.86-12.31,5.24-20.13,7.39-26.43,3.26-9.52,6.75-17.82,10.01-24.76,1.63,.61,3.28,1.22,4.97,1.85,3.3,1.22,6.72,2.45,10.19,3.68,.03,5.84-.08,11.8-.35,17.91Z"></path>
      <path class="cls-3" d="M438.91,765.7h-33.95c-7.21,0-13.01-5.85-13.01-13.03v-14.69c0-4.11-3.34-7.43-7.43-7.43-.01,0-.07,.02-.1,0-.28-.2,.98-2.5,2.46-4.99,15.23,1.22,30.45,2.44,45.68,3.67,2.12,12.16,4.24,24.31,6.35,36.47Z"></path>
      <path class="cls-3" d="M498.48,711.51c-1.15,.45-5.29,1.45-9.43,2.08-2.77,.43-5.11,.64-6.79,.74-1.37-9.41-6.01-41.37-6.35-43.74-1.48-10.2-2.7-18.88-5.22-30.76-1.71-8.11-3.41-14.8-4.66-19.48,3.18-.6,6.42-1.24,9.71-1.95,1.95-.41,3.87-.84,5.76-1.27,.32,.24,.71,.58,1.09,1.05,.9,1.13,1.17,2.28,1.24,2.57,1.18,4.7,28.42,85.33,14.65,90.76Z"></path>
      <g>
        <g>
          <path class="cls-1" d="M586.92,460.73c-.25-5.05-.56-9.69-.97-14.14-1.6-18.38-3.81-32.69-5.72-43.56-7.73-44.31-13.3-76.19-29.35-117.73-.97-2.53-1.75-4.58-2.4-6.24-1.19-2.99-1.91-4.75-2.35-5.57-1.6-2.89-3.44-5.62-5.5-8.17h0c7.1-15.25,12.27-28.88,16.04-40,5.5-16.28,11.27-33.62,14.32-57.11,2.76-21.28,1.95-37.27,1.07-52.84-1.73-30.96-7.57-50.38-19.17-89.26-1.66-5.59-6.81-22.38-17.47-25.38-6.28-1.78-11.62,.36-11.62,.36-1.26,.51-4.51,1.98-6.93,5.24-4.01,5.41-3.22,12.3-3.04,14.1,1.75,17.73-3.28,77.49-4.88,91.51-4.41,38.58-21.53,68.57-35.04,92.24-6.41,11.24-12.67,20.59-17.86,27.83-11.02-.91-22.59-1.19-34.46-.94-.22-44.6-3.54-82.45-7.28-111.94,0,0-2.04-24.73-26.6-87.33-2.13-5.45-8.68-21.73-19.54-23.83-6.41-1.24-11.55,1.33-11.55,1.33-1.2,.61-4.32,2.36-6.46,5.81-3.54,5.72-2.17,12.53-1.84,14.31,2.17,11.77,2.41,40.9,2.82,91.59,.11,13.38-.66,52.96-18.62,97.08-4.12,10.1-8.36,18.57-11.95,25.12,0,0-.01,0-.02,0-23.05,4.75-45.03,10.53-64.32,16.69-7.56,2.4-14.59,4.85-21.08,7.26,0,0-.01,0-.02,0-4.12,3.46-12.42,11.39-17.38,24.49-4.59,12.15-4.05,22.77-3.41,28.07,11.71,75.22,23.42,150.44,35.13,225.66,.32,4.23,1.2,12.13,4.26,21.45,3.07,9.33,8.32,20.09,17.38,30.01,10.14,11.11,20.85,16.66,25.61,18.86,4.87,2.25,9.19,3.65,12.39,4.52-3.66,.48-12.67,2.18-20.42,9.55-13.22,12.56-11.15,30.56-10.87,32.62-1.35,34.43-2.7,68.86-4.05,103.29h10.5c16.39,0,32.77,0,49.16,.01,7.18,0,13.03-5.85,13.03-13.03v-14.69c0-4.11,3.32-7.43,7.43-7.43h75.25c.04,1.86,.1,4.88,.12,8.65,.13,12.63-.19,16.44,2.04,21.1,.69,1.41,1.83,3.34,3.79,5.4h34.8c7.24,0,13.1-5.92,13.03-13.15l-.37-36.51c4.83-.1,12.13-.64,20.73-2.77,6.89-1.71,10.33-2.55,12.41-4.31,3.79-3.19,5.35-8.99,3.14-23.58-1.04-7.01-2.95-16.05-5.92-27.84-2.75-10.93-6.61-25.14-11.96-41.68,40.87-5.82,59.51-24.5,66.5-32.77,24.12-28.76,22.19-68.34,19.49-122.35Zm-89.53,247.3c-1.72,.84-7.02,1.66-8.71,1.92-2.56,.39-4.72,.59-6.27,.68-1.26-8.69-5.55-38.22-5.87-40.41-1.37-9.42-2.5-17.44-4.82-28.42-1.58-7.5-3.15-13.68-4.3-18,2.94-.55,5.94-1.14,8.97-1.8,1.8-.38,3.57-.77,5.32-1.17,.33,.81,.83,2.07,1.44,3.6,15.94,40.57,22.66,79.48,14.24,83.6Z"></path>
          <path class="cls-3" d="M343.6,329.89c-4.81,1.98-10.05,3.87-15.74,5.54-15.56,4.58-29.78,6.15-41.45,6.43,0,0-13.71,1.64-22.6-3.46,0,0-7.05-4.04-9.98-12.28-4.86-13.65,12.98-36.82,43.89-56.52-.66,3.24-1.34,8-1.11,13.74,.22,5.42,.8,16.63,8.42,27.7,2.38,3.46,8.63,12.27,20.62,16.63,7.47,2.72,14.12,2.59,17.96,2.21Z"></path>
          <path class="cls-3" d="M379.37,63.99c-4.55-16.72-9.52-30.31-13.28-39.75,4.21,12.15,9.5,29.41,13.63,50.54,2.24,11.48,10.7,57.6,3.32,119.69-1.98,16.71-4.52,29.65-7.3,39.8-1.64,6.05-3.37,11.11-5.09,15.39-3.74,9.29-7.51,14.9-10.56,18.94-8.14,10.81-16.96,18.09-23.27,22.61,6.41-11.95,13.07-26.04,19.07-42.14,1.54-4.14,3.04-8.41,4.48-12.81,3.54-10.82,6.74-22.43,9.36-34.8,16.18-76.44,1.78-140.93-9.46-176.52-.67-2.11-3.36-2.7-4.86-1.08l-.04,.04c-.59,.64-.85,1.52-.73,2.38,4.98,34.07,5.11,62.71,4.12,83.41-1.75,36.38-4.36,81.2-29.59,129-.56,1.05-1.11,2.09-1.68,3.12-1.12,2.06-2.26,4.06-3.39,6-7.87,13.46-15.88,24.07-22.23,31.74-.96,1.16-1.4,2.67-1.14,4.15,.91,5.28,2.29,9.7,3.63,13.17,2.53,6.56,5.4,14.02,12.63,19.95,3.75,3.07,7.6,4.85,10.69,5.91,1.5,.52,3.14,.27,4.47-.6,5.17-3.39,11.84-8.36,18.64-15.28,6.19-6.31,19.2-21.07,29.25-56.8,1.43-5.12,2.82-10.67,4.1-16.69h0c.9-4.2,1.75-8.63,2.56-13.29,12.35-71.82-.12-129.55-7.33-156.07Zm-23.59,128.81c1.04-3.73,4.52-16.2,5.65-15.96,1.11,.23-.13,12.73-2.99,24.6-2.81,11.64-7.47,23.91-8.65,23.6-1.37-.36,2-17.98,5.99-32.25Z"></path>
          <path class="cls-1" d="M358.45,201.45c-2.81,11.64-7.47,23.91-8.65,23.6-1.37-.36,2-17.98,5.99-32.25,1.04-3.73,4.52-16.2,5.65-15.96,1.11,.23-.13,12.73-2.99,24.6Z"></path>
          <path class="cls-3" d="M397.67,198.79c-1.86-.16,.31-23.45-1-52.53-.1-2.24-.42-8.88,.33-8.98,.55-.07,1.43,3.41,1.75,4.64,3.44,13.57,1.46,57.08-1.08,56.88Z"></path>
        </g>
        <g>
          <path class="cls-3" d="M483.89,319.45c-3.9,1.29-9.41,2.91-16.15,4.2-10.75,2.06-23.56,4.51-37.69,.79-7.45-1.96-19.71-5.19-23.61-13.3-6-12.49,8.19-35.75,36.79-55.62-.92,3.17-2,7.86-2.26,13.6-.24,5.42-.59,16.64,6.07,28.31,2.08,3.65,7.56,12.95,19.14,18.3,7.21,3.34,13.85,3.77,17.7,3.71Z"></path>
          <path class="cls-3" d="M541.88,57.49c-3.13-17.04-6.94-31-9.9-40.73,3.18,12.47,7,30.1,9.34,51.5,1.27,11.63,5.82,58.3-6.75,119.55-6.14,29.92-13.08,47.34-19.26,58.24-3.64,6.43-7.02,10.59-9.82,13.71-.74,.82-1.47,1.62-2.21,2.39-8.32,8.74-16.75,14.53-22.88,18.18,4.47-6.88,9.09-14.52,13.67-22.93,2.85-5.22,5.68-10.73,8.44-16.54,6.69-14.04,12.99-29.78,18.23-47.2,22.55-74.81,13.61-140.28,5.41-176.69-.49-2.16-3.12-2.97-4.75-1.48l-.04,.04c-.64,.59-.98,1.44-.93,2.31,2.1,34.36-.17,62.91-2.9,83.46-4.8,36.11-11.17,80.54-40.32,126.06-1.44,2.25-2.89,4.42-4.33,6.52-2.22,3.22-4.44,6.26-6.63,9.14-7.17,9.43-14.04,17.01-19.69,22.76-1.05,1.07-1.62,2.54-1.49,4.03,.46,5.34,1.46,9.86,2.5,13.43,1.97,6.75,4.2,14.43,10.91,20.94,3.48,3.37,7.16,5.48,10.15,6.79,1.46,.64,3.12,.53,4.52-.22,5.43-2.94,12.5-7.33,19.86-13.67,4.73-4.07,13.21-12.06,22.36-28.67,2.78-5.04,5.62-10.88,8.45-17.64,4.23-10.15,8.42-22.38,12.26-37.14,18.35-70.52,10.76-129.1,5.81-156.14Zm-34.33,126.37c1.35-3.63,5.87-15.76,6.98-15.42,1.08,.33-1.2,12.67-5.05,24.26-3.77,11.37-9.45,23.21-10.59,22.79-1.34-.48,3.5-17.74,8.67-31.63Z"></path>
          <path class="cls-1" d="M509.47,192.71c-3.77,11.37-9.45,23.21-10.59,22.79-1.34-.48,3.5-17.74,8.67-31.63,1.35-3.63,5.87-15.76,6.98-15.42,1.08,.33-1.2,12.67-5.05,24.26Z"></path>
          <path class="cls-3" d="M548.79,193.35c-1.85-.31,2.27-23.33,3.42-52.43,.09-2.23,.33-8.88,1.08-8.91,.55-.02,1.14,3.51,1.34,4.76,2.3,13.82-3.33,57-5.85,56.59Z"></path>
        </g>
      </g>
      <path class="cls-3" d="M286.72,605.53l-.33-.3c-6.93-6.31-21.49-25.8-27.88-51.07-5.68-22.42-21.52-115.01-37.28-243.63-1.29-10.51,.91-21.16,6.26-30.31,2.55-4.36,5.09-8.71,7.64-13.07h0c-1.17,.41-2.47,.89-3.88,1.43-.27,.1-.55,.2-.83,.3-.53,.2-1.08,.41-1.64,.62-.08,.03-.17,.06-.26,.1-.3,.12-.62,.24-.93,.36-.65,.25-1.3,.51-1.94,.75-.33,.13-.67,.25-1.01,.39-.15,.06-.3,.12-.46,.18-1.86,.73-3.83,1.51-5.9,2.35-5.48,2.23-10.41,4.23-16.66,7.12-.03,.01-.07,.03-.1,.05-.19,.08-.38,.17-.57,.26,0,0,0,0-.01,0-10.54,4.93-21.45,10.91-27.67,18.63-.49,.61-.89,1.16-1.24,1.64-1.4,1.98-4.04,6.05-7.01,14.86-6.45,19.1-6.18,35.82-6.03,40.98,.12,4.39,2.87,91.35,19.38,172.7,1.11,5.47,3.41,16.4,10.24,29,0,0,3.68,6.79,8.03,12.44,7.24,9.41,17.38,15.55,30.57,21.28-2.12,3.37-4.49,7.45-6.86,12.19-6.95,13.94-9.83,25.55-11.75,33.47-2.27,9.36-4.5,21.77-5.1,36.57-1.24-.38-4.75-1.27-8.65,.22-3.72,1.43-5.62,4.21-6.65,5.76-3.54,5.34-4.54,13.35-1.11,19.29,1.19,2.05,3.97,4.1,9.53,8.19,5.39,3.97,8.08,5.96,10.76,7.16,1.83,.82,5.23,2.02,20.04,2.37,5.42,.13,10.03,.08,13.52,0v34.84c0,7.19,5.83,13.02,13.02,13.02h30.31c-.18-.13-.51-.39-.88-.77-2.69-2.7-2.44-6.86-2.59-8.24-3.96-34.68,2.7-93.38,2.7-93.38,1.31-11.6,2.27-20.28,8.86-28.82,6.05-7.84,13.94-11.8,19.28-13.83,.11-.04,.22-.08,.33-.13l-.14-.05c-9.29-3.23-17.83-8.31-25.1-14.94Zm-27.95,16.31c-1.34,30.29-6.54,57.68-13.42,81.67-.17,.59-.34,1.2-.52,1.79,0,.02-.01,.04-.01,.06-.59,1.6-1.57,3.37-3.28,4.63-4.79,3.57-13.33,1.85-17.67-1.92-8.05-7-3.97-24.58,4.19-59.76,2.73-11.74,5-19.2,7.05-25.2,3.11-9.08,6.43-16.99,9.55-23.61,1.55,.58,3.13,1.17,4.74,1.76,3.14,1.16,6.4,2.34,9.72,3.51,.03,5.56-.07,11.25-.33,17.08Z"></path>
    </g>
    <g>
      <path class="cls-3" d="M418.81,453.44c-.7-1.46-4.38-.58-11.9-.46,0,0-1.88,.03-11.44-.46-12.86-.65-26.26-8.02-39.13-15.1-9.36-5.15-11.18-6.99-17.16-8.47-4.76-1.18-11.96-2.07-19.91,.23-5.76,1.66-10.81,4.68-10.53,5.49,.46,1.32,14.05-5.87,27.69-.23,.98,.41,.82,.4,6.18,3.43,1.46,.83,13.86,7.82,21.51,11.67,14.56,7.33,25.58,10.17,27.92,10.75,12.37,3.1,17.78,2.28,21.74-.23,2.97-1.89,5.75-5.13,5.03-6.64Z"></path>
      <path class="cls-3" d="M395.32,474.15c.57-.93,.18-2.28,.15-2.4-.48-1.63-2.14-2.45-2.75-2.75-4.75-2.33-27.13-5.35-31.12-5.95-5.61-.85-13.58-3.69-29.52-9.38-.96-.34-7.24-2.59-15.79-3.66-7.72-.97-11.01-.2-13.27,.69-5.84,2.28-9.67,7.59-8.92,8.7,.89,1.31,7.24-4.63,13.08-2.55,5.23,1.86,4.02,7.99,10.26,16.73,6.91,9.68,16.53,13.54,19.11,14.54,6.08,2.35,11.11,2.62,15.44,2.85,10.73,.57,17.58-1.91,20.25-3.01,6.85-2.82,8.21-5.67,8.59-6.6,1.09-2.69-.07-4.11,1.23-5.56,2.96-3.31,11.54,1.19,13.27-1.65Z"></path>
      <path class="cls-3" d="M390.94,482.28c1.39-.16,2.06,.31,2.24,.45,1.72,1.32,.83,4.94,.69,5.49-1.3,5.1-7.14,7.72-10.98,9.38-3.91,1.69-11.1,4.12-21.97,3.66-10.38-.44-19.12-3.31-18.99-4.12,.13-.86,10.05,2.41,23.06-.81,9.42-2.33,15.75-3.87,19.27-8.8,.8-1.13,3.19-4.85,6.69-5.25Z"></path>
      <path class="cls-3" d="M494.89,451.02c.46-.96,2.88-.38,7.82-.3,0,0,1.23,.02,7.52-.3,8.45-.43,17.26-5.27,25.72-9.93,5.72-3.14,7.18-4.9,11.28-5.57,1.54-.25,6.54-.98,11.62,1.81,4.84,2.66,7.67,7.38,7.09,8.01-.88,.96-8.94-8.46-16.9-6.21-1.15,.33-1.45,.78-4.06,2.26-.96,.54-9.11,5.14-14.14,7.67-9.57,4.82-16.81,6.68-18.35,7.07-8.13,2.04-11.69,1.5-14.29-.15-1.95-1.24-3.78-3.37-3.31-4.36Z"></path>
      <path class="cls-3" d="M502.04,474.42c-.41-.67-.13-1.64-.11-1.73,.35-1.18,1.55-1.77,1.98-1.98,3.43-1.68,19.59-3.86,22.46-4.29,4.05-.61,9.8-2.67,21.31-6.77,.69-.25,5.22-1.87,11.4-2.64,5.57-.7,7.94-.14,9.58,.5,4.21,1.64,6.98,5.48,6.44,6.28-.64,.94-5.22-3.34-9.44-1.84-3.77,1.35-2.9,5.77-7.41,12.08-4.99,6.99-11.93,9.78-13.79,10.5-4.39,1.7-8.02,1.89-11.15,2.06-7.74,.41-12.69-1.38-14.61-2.17-4.94-2.04-5.92-4.09-6.2-4.77-.79-1.94,.05-2.96-.88-4.01-2.14-2.39-8.33,.86-9.58-1.19Z"></path>
      <path class="cls-3" d="M535.83,493.37c-.11,.11-.48,.5-.57,1.09-.21,1.44,1.51,2.73,1.97,3.06,2.8,2.03,6.86,.89,9.49,.11,2.69-.79,7.34-2.59,12.63-7.4,5.05-4.59,8.26-9.72,7.85-10.07-.43-.38-4.06,5.44-11.98,9.3-5.78,2.81-9.36,4.54-13.43,3.67-1.28-.27-4.54-1.22-5.96,.24Z"></path>
      <path class="cls-3" d="M546.72,566.02c-4.39,.19-10.71,.44-18.31,.69-16.32,.53-37.77,1.22-57.89,.92-20.55-.31-43.77-.66-72.99-5.72-19.29-3.34-34.98-7.65-45.76-10.98,.5,1.49,1.3,3.58,2.52,5.95,4.7,9.18,11.42,14.31,16.48,18.08,8.34,6.22,16.72,9.72,23.42,11.75,42.99,.13,85.99,.25,128.98,.38,4.19-1.15,15.86-4.95,21.51-15.79,.93-1.78,1.59-3.55,2.06-5.26Z"></path>
    </g>
  </g>
  <g>
    <g>
      <path class="cls-1" d="M870.11,242.44c60.43,0,101.47,36.19,110.84,90.15h-75.61c-6.79-15.18-20.36-23.9-36.51-23.9-24.24,0-39.1,19.71-39.1,50.08s14.86,50.09,39.1,50.09c16.16,0,29.73-8.73,36.51-23.91h75.61c-9.37,53.96-50.41,90.15-110.84,90.15-70.11,0-113.09-48.14-113.09-116.32s42.98-116.32,113.09-116.32Z"></path>
      <path class="cls-1" d="M1006.78,291.22h71.73v182.24h-71.73v-182.24Zm53.97,88.21c0-44.26,35.54-89.5,77.54-89.5v76.58h-20.36c-25.85,0-39.42,7.43-39.42,32.31l-17.76-19.39Z"></path>
      <path class="cls-1" d="M1284.32,291.22h79.17l-116.65,269.48h-78.51l45.88-96.29-75.93-173.19h79.8l34.25,92.42,31.99-92.42Z"></path>
      <path class="cls-1" d="M1498.21,288.96c42,0,75.29,34.57,75.29,93.39s-33.29,93.38-75.29,93.38c-24.24,0-41.36-10.66-50.09-27.14v112.12h-71.73V291.22h71.73v24.88c8.73-16.48,25.85-27.14,50.09-27.14Zm-23.9,62.69c-14.87,0-26.5,10.66-26.5,30.7s11.63,30.69,26.5,30.69,26.49-10.66,26.49-30.69-11.63-30.7-26.49-30.7Z"></path>
      <path class="cls-1" d="M1584.79,351v-59.78h124.08v59.78h-124.08Zm22.62-103.72h71.73v152.83c0,8.4,3.88,12.28,13.25,12.28h17.12v61.07h-27.13c-42.66,0-74.97-18.1-74.97-74.64V247.28Z"></path>
      <path class="cls-1" d="M1727.28,382.35c0-58.16,41.36-93.39,96.29-93.39s96.29,35.22,96.29,93.39-41.36,93.38-96.29,93.38-96.29-35.22-96.29-93.38Zm119.87,0c0-21.65-10.99-31.35-23.58-31.35s-23.6,9.7-23.6,31.35,10.67,31.34,23.6,31.34,23.58-9.69,23.58-31.34Z"></path>
      <path class="cls-2" d="M2082.68,322.89c-5.49-8.73-15.83-14.21-30.69-14.21-27.79,0-43.3,19.71-43.3,50.08,0,35.54,16.16,53.32,51.37,53.32,16.16,0,29.41-5.82,40.07-20.04h-57.19v-50.73h116.65v71.73c-15.83,27.47-48.14,62.04-107.28,62.04-72.06,0-116.33-48.14-116.33-116.32s43.94-116.32,115.69-116.32c60.74,0,99.84,31.66,106.62,80.46h-75.61Z"></path>
      <path class="cls-2" d="M2255.55,387.83c0,17.45,10.01,28.12,25.52,28.12s25.52-10.66,25.52-28.12l4.85,49.12c-8.73,19.39-28.43,37.81-60.75,37.81-42,0-66.56-30.7-66.56-77.87v-105.66h71.42v96.61Zm122.78,85.63h-71.73v-182.24h71.73v182.24Z"></path>
      <path class="cls-2" d="M2550.85,322.89c-5.49-8.73-15.83-14.21-30.69-14.21-27.79,0-43.3,19.71-43.3,50.08,0,35.54,16.16,53.32,51.37,53.32,16.16,0,29.41-5.82,40.07-20.04h-57.19v-50.73h116.65v71.73c-15.83,27.47-48.14,62.04-107.28,62.04-72.06,0-116.33-48.14-116.33-116.32s43.94-116.32,115.69-116.32c60.74,0,99.84,31.66,106.62,80.46h-75.61Z"></path>
      <path class="cls-2" d="M2723.71,387.83c0,17.45,10.01,28.12,25.52,28.12s25.52-10.66,25.52-28.12l4.85,49.12c-8.73,19.39-28.44,37.81-60.75,37.81-42,0-66.56-30.7-66.56-77.87v-105.66h71.42v96.61Zm122.78,85.63h-71.73v-182.24h71.73v182.24Z"></path>
    </g>
    <g>
      <path class="cls-3" d="M802.18,749.77c-9.09,0-17.28-1.62-24.56-4.86-7.28-3.24-13.29-7.82-18.03-13.73-4.74-5.91-7.84-12.91-9.3-20.98l13.64-2.38c2.1,8.77,6.63,15.72,13.59,20.84,6.96,5.12,15.37,7.68,25.22,7.68s18.06-2.43,24.22-7.3c6.17-4.86,9.25-11.24,9.25-19.12,0-5.85-1.72-10.52-5.15-14.02-3.43-3.5-9.25-6.48-17.45-8.96l-30.52-9.54c-18.44-5.79-27.66-16.72-27.66-32.81,0-7.5,1.86-14.1,5.58-19.79,3.72-5.69,8.9-10.12,15.55-13.3,6.64-3.18,14.42-4.74,23.32-4.67,8.71,0,16.51,1.64,23.41,4.91,6.9,3.27,12.57,7.9,17.02,13.88,4.45,5.98,7.41,13.07,8.87,21.27l-14.02,2.67c-.89-5.85-2.94-10.97-6.15-15.35-3.21-4.39-7.33-7.8-12.35-10.25-5.02-2.45-10.62-3.7-16.79-3.77-5.85,0-11.06,1.02-15.64,3.05-4.58,2.03-8.19,4.85-10.82,8.44-2.64,3.59-3.96,7.71-3.96,12.35,0,5.09,1.83,9.39,5.48,12.92,3.66,3.53,9.46,6.5,17.41,8.92l26.23,7.92c11.06,3.31,19.04,7.76,23.94,13.35,4.9,5.59,7.34,13.07,7.34,22.41,0,8.07-1.97,15.13-5.91,21.17-3.94,6.04-9.49,10.73-16.64,14.07-7.15,3.34-15.53,5.01-25.13,5.01Zm-8.68-137.33v-21.84h14.02v21.84h-14.02Zm0,153.26v-21.74h14.02v21.74h-14.02Z"></path>
      <path class="cls-3" d="M869.61,746.91v-137.33h12.87l53.98,115.49,53.69-115.49h13.07v137.24h-13.35v-105.95l-48.92,106.05h-9.06l-48.83-106.05v106.05h-13.45Z"></path>
      <path class="cls-3" d="M1073.5,749.77c-10.05,0-18.74-2.23-26.08-6.68-7.34-4.45-13.05-10.71-17.12-18.79-4.07-8.07-6.1-17.55-6.1-28.42s2-20.98,6.01-29.18c4.01-8.2,9.65-14.53,16.93-18.98,7.28-4.45,15.88-6.68,25.8-6.68s18.85,2.34,26.04,7.01c7.18,4.67,12.62,11.37,16.31,20.07,3.69,8.71,5.37,19.11,5.05,31.18h-14.31v-4.96c-.25-13.35-3.13-23.43-8.63-30.23-5.5-6.8-13.53-10.2-24.08-10.2s-19.54,3.59-25.42,10.78c-5.88,7.19-8.82,17.42-8.82,30.71s2.94,23.03,8.82,30.18c5.88,7.15,14.22,10.73,25.03,10.73,7.37,0,13.81-1.7,19.31-5.1,5.5-3.4,9.84-8.31,13.02-14.73l13.07,5.05c-4.07,8.96-10.06,15.91-17.98,20.84-7.92,4.93-16.86,7.39-26.85,7.39Zm-39.39-50.45v-11.73h78.68v11.73h-78.68Z"></path>
      <path class="cls-3" d="M1138.45,746.91v-103h12.59v25.37h1.53v77.63h-14.11Zm61.61,0l.1-66.66c0-8.2-2.18-14.67-6.53-19.41-4.36-4.74-10.09-7.1-17.21-7.1s-12.87,2.43-17.26,7.3c-4.39,4.86-6.58,11.33-6.58,19.41l-8.39-4.58c0-6.61,1.56-12.54,4.67-17.79,3.11-5.25,7.38-9.38,12.78-12.4,5.4-3.02,11.54-4.53,18.41-4.53s12.38,1.4,17.5,4.2c5.12,2.8,9.14,6.87,12.06,12.21,2.92,5.34,4.39,11.83,4.39,19.45l-.1,69.91h-13.83Zm61.32,0l.09-67.62c0-7.95-2.21-14.19-6.63-18.74-4.42-4.54-10.03-6.82-16.83-6.82-3.88,0-7.66,.89-11.35,2.67-3.69,1.78-6.72,4.64-9.11,8.58-2.38,3.94-3.58,9.09-3.58,15.45l-8.3-2.38c-.19-7.38,1.25-13.83,4.34-19.36,3.08-5.53,7.34-9.84,12.78-12.92,5.44-3.08,11.59-4.63,18.45-4.63,10.36,0,18.66,3.19,24.89,9.58,6.23,6.39,9.35,15.02,9.35,25.89l-.1,70.29h-14.02Z"></path>
      <path class="cls-3" d="M1343.21,749.77c-10.05,0-18.74-2.23-26.08-6.68-7.34-4.45-13.05-10.71-17.12-18.79-4.07-8.07-6.1-17.55-6.1-28.42s2-20.98,6.01-29.18c4.01-8.2,9.65-14.53,16.93-18.98,7.28-4.45,15.88-6.68,25.8-6.68s18.85,2.34,26.04,7.01c7.18,4.67,12.62,11.37,16.31,20.07,3.69,8.71,5.37,19.11,5.05,31.18h-14.31v-4.96c-.25-13.35-3.13-23.43-8.63-30.23-5.5-6.8-13.53-10.2-24.08-10.2s-19.54,3.59-25.42,10.78c-5.88,7.19-8.82,17.42-8.82,30.71s2.94,23.03,8.82,30.18c5.88,7.15,14.22,10.73,25.03,10.73,7.37,0,13.81-1.7,19.31-5.1,5.5-3.4,9.84-8.31,13.02-14.73l13.07,5.05c-4.07,8.96-10.06,15.91-17.98,20.84-7.92,4.93-16.86,7.39-26.85,7.39Zm-39.39-50.45v-11.73h78.68v11.73h-78.68Z"></path>
      <path class="cls-3" d="M1449.26,746.91v-137.33h53.02c7.69,0,14.4,1.59,20.12,4.77,5.72,3.18,10.17,7.45,13.35,12.83,3.18,5.37,4.77,11.3,4.77,17.79,0,7.38-1.97,13.94-5.91,19.69-3.94,5.75-9.22,9.74-15.83,11.97l-.19-4.67c8.9,2.54,15.9,6.99,20.98,13.35,5.09,6.36,7.63,14.05,7.63,23.08,0,7.95-1.69,14.8-5.05,20.55-3.37,5.75-8.11,10.19-14.21,13.3-6.1,3.12-13.19,4.67-21.27,4.67h-57.41Zm14.11-78.77h38.81c4.39,0,8.39-1,12.02-3,3.62-2,6.5-4.75,8.63-8.25,2.13-3.5,3.2-7.53,3.2-12.11,0-6.48-2.24-11.76-6.72-15.83-4.48-4.07-10.19-6.1-17.12-6.1h-38.81v45.3Zm0,65.33h39.86c5.59,0,10.62-1,15.07-3,4.45-2,7.96-4.85,10.54-8.54,2.57-3.69,3.86-8.14,3.86-13.35s-1.18-9.66-3.53-13.73c-2.35-4.07-5.55-7.33-9.58-9.78-4.04-2.45-8.63-3.67-13.78-3.67h-42.44v52.07Z"></path>
      <path class="cls-3" d="M1568.08,624.36v-15.74h14.02v15.74h-14.02Zm0,122.55v-103h14.02v103h-14.02Z"></path>
      <path class="cls-3" d="M1612.62,746.91v-140.19h14.02v140.19h-14.02Z"></path>
      <path class="cls-3" d="M1657.15,746.91v-140.19h14.02v140.19h-14.02Z"></path>
      <path class="cls-3" d="M1701.69,624.36v-15.74h14.02v15.74h-14.02Zm0,122.55v-103h14.02v103h-14.02Z"></path>
      <path class="cls-3" d="M1787.33,749.77c-10.24,0-18.98-2.32-26.23-6.96-7.25-4.64-12.81-11.06-16.69-19.27-3.88-8.2-5.82-17.61-5.82-28.23s1.97-20.28,5.91-28.42c3.94-8.14,9.55-14.48,16.83-19.03,7.28-4.55,15.94-6.82,25.99-6.82s19.09,2.31,26.37,6.91c7.28,4.61,12.84,11,16.69,19.17,3.84,8.17,5.77,17.57,5.77,28.18s-1.94,20.3-5.82,28.47c-3.88,8.17-9.47,14.54-16.78,19.12-7.31,4.58-16.06,6.87-26.23,6.87Zm0-13.45c11.44,0,19.96-3.8,25.56-11.4,5.59-7.6,8.39-17.47,8.39-29.61s-2.81-22.38-8.44-29.76c-5.63-7.37-14.13-11.06-25.51-11.06-7.69,0-14.04,1.73-19.03,5.2-4.99,3.47-8.71,8.27-11.16,14.4-2.45,6.14-3.67,13.21-3.67,21.22,0,12.4,2.86,22.33,8.58,29.8,5.72,7.47,14.15,11.21,25.27,11.21Z"></path>
      <path class="cls-3" d="M1857.04,746.91v-103h12.68v25.37h1.43v77.63h-14.11Zm74.48,0v-52.55c0-5.72-.54-10.98-1.62-15.78-1.08-4.8-2.81-9-5.2-12.59-2.38-3.59-5.47-6.37-9.25-8.34-3.78-1.97-8.38-2.96-13.78-2.96-4.96,0-9.33,.86-13.11,2.58-3.78,1.72-6.96,4.18-9.54,7.39-2.57,3.21-4.53,7.1-5.86,11.68-1.34,4.58-2,9.79-2,15.64l-9.92-2.19c0-10.55,1.84-19.42,5.53-26.61,3.69-7.18,8.77-12.62,15.26-16.31,6.48-3.69,13.92-5.53,22.32-5.53,6.17,0,11.55,.95,16.16,2.86,4.61,1.91,8.52,4.48,11.73,7.72,3.21,3.24,5.8,6.95,7.77,11.11,1.97,4.17,3.4,8.58,4.29,13.26,.89,4.67,1.34,9.33,1.34,13.97v56.65h-14.11Z"></path>
      <path class="cls-3" d="M1999.9,749.77c-7.76,0-14.26-1.4-19.5-4.2-5.24-2.8-9.17-6.52-11.78-11.16-2.61-4.64-3.91-9.69-3.91-15.16s1.13-10.38,3.39-14.35c2.26-3.97,5.34-7.23,9.25-9.78,3.91-2.54,8.44-4.48,13.59-5.82,5.21-1.27,10.98-2.4,17.31-3.39,6.32-.98,12.52-1.84,18.6-2.57,6.07-.73,11.4-1.45,15.97-2.15l-4.96,3.05c.19-10.17-1.78-17.71-5.91-22.6-4.13-4.9-11.32-7.34-21.55-7.34-7.06,0-13.02,1.59-17.88,4.77-4.86,3.18-8.28,8.2-10.25,15.07l-13.64-4.01c2.35-9.22,7.09-16.37,14.21-21.46,7.12-5.09,16.37-7.63,27.75-7.63,9.41,0,17.41,1.76,23.99,5.29,6.58,3.53,11.24,8.63,13.97,15.31,1.27,2.99,2.1,6.33,2.48,10.01,.38,3.69,.57,7.44,.57,11.25v63.99h-12.49v-25.84l3.62,1.53c-3.5,8.84-8.93,15.58-16.31,20.22-7.38,4.64-16.21,6.96-26.51,6.96Zm1.62-12.11c6.55,0,12.27-1.18,17.17-3.53,4.9-2.35,8.84-5.58,11.83-9.68,2.99-4.1,4.93-8.73,5.82-13.88,.76-3.3,1.18-6.94,1.24-10.92,.06-3.97,.1-6.95,.1-8.92l5.34,2.77c-4.77,.64-9.93,1.27-15.5,1.91-5.56,.64-11.03,1.37-16.4,2.19-5.37,.83-10.22,1.81-14.54,2.96-2.93,.83-5.75,1.99-8.49,3.48-2.73,1.49-4.98,3.48-6.72,5.96-1.75,2.48-2.62,5.56-2.62,9.25,0,2.99,.75,5.88,2.24,8.68,1.49,2.8,3.91,5.12,7.25,6.96,3.34,1.85,7.77,2.77,13.3,2.77Z"></path>
      <path class="cls-3" d="M2078.3,624.36v-15.74h14.02v15.74h-14.02Zm0,122.55v-103h14.02v103h-14.02Z"></path>
      <path class="cls-3" d="M2120.93,746.91v-103h12.59v24.8l-2.48-3.24c1.14-3.05,2.64-5.86,4.48-8.44,1.84-2.58,3.85-4.69,6.01-6.34,2.67-2.35,5.78-4.15,9.35-5.39,3.56-1.24,7.15-1.97,10.78-2.19,3.62-.22,6.93,.05,9.92,.81v13.16c-3.75-.95-7.85-1.18-12.3-.67-4.45,.51-8.55,2.29-12.3,5.34-3.43,2.67-6.01,5.86-7.72,9.58-1.72,3.72-2.86,7.66-3.43,11.83-.57,4.17-.86,8.28-.86,12.35v51.4h-14.02Z"></path>
      <path class="cls-3" d="M2231.36,749.77c-10.05,0-18.74-2.23-26.08-6.68-7.34-4.45-13.05-10.71-17.12-18.79-4.07-8.07-6.1-17.55-6.1-28.42s2-20.98,6.01-29.18c4.01-8.2,9.65-14.53,16.93-18.98,7.28-4.45,15.88-6.68,25.8-6.68s18.85,2.34,26.04,7.01c7.18,4.67,12.62,11.37,16.31,20.07,3.69,8.71,5.37,19.11,5.05,31.18h-14.31v-4.96c-.25-13.35-3.13-23.43-8.63-30.23-5.5-6.8-13.53-10.2-24.08-10.2s-19.54,3.59-25.42,10.78c-5.88,7.19-8.82,17.42-8.82,30.71s2.94,23.03,8.82,30.18c5.88,7.15,14.22,10.73,25.03,10.73,7.37,0,13.81-1.7,19.31-5.1,5.5-3.4,9.84-8.31,13.02-14.73l13.07,5.05c-4.07,8.96-10.06,15.91-17.98,20.84-7.92,4.93-16.86,7.39-26.85,7.39Zm-39.39-50.45v-11.73h78.68v11.73h-78.68Z"></path>
      <path class="cls-3" d="M2337.7,749.67c-12.08,0-22.02-2.61-29.8-7.82-7.79-5.21-12.57-12.46-14.35-21.75l14.31-2.38c1.53,5.85,5.01,10.51,10.44,13.97,5.44,3.47,12.16,5.2,20.17,5.2s13.99-1.64,18.5-4.91c4.51-3.27,6.77-7.74,6.77-13.4,0-3.18-.72-5.77-2.15-7.77-1.43-2-4.34-3.86-8.73-5.58-4.39-1.72-10.94-3.75-19.65-6.1-9.35-2.54-16.66-5.09-21.93-7.63-5.28-2.54-9.03-5.48-11.25-8.82-2.23-3.34-3.34-7.42-3.34-12.25,0-5.85,1.65-10.98,4.96-15.4,3.3-4.42,7.88-7.85,13.73-10.3,5.85-2.45,12.65-3.67,20.41-3.67s14.7,1.26,20.84,3.77c6.14,2.51,11.08,6.02,14.83,10.54,3.75,4.51,5.98,9.76,6.68,15.73l-14.31,2.58c-.95-6.04-3.96-10.82-9.01-14.35-5.06-3.53-11.46-5.36-19.22-5.48-7.31-.19-13.26,1.19-17.83,4.15-4.58,2.96-6.87,6.88-6.87,11.78,0,2.74,.83,5.07,2.48,7.01,1.65,1.94,4.66,3.77,9.01,5.48,4.35,1.72,10.57,3.59,18.65,5.63,9.47,2.42,16.91,4.96,22.32,7.63,5.4,2.67,9.25,5.82,11.54,9.44,2.29,3.62,3.43,8.11,3.43,13.45,0,9.73-3.61,17.37-10.82,22.94-7.22,5.56-17.15,8.34-29.8,8.34Z"></path>
    </g>
  </g>
</svg>
