<?xml version="1.0" encoding="UTF-8"?>
<svg xmlns="http://www.w3.org/2000/svg" id="_Слой_1" data-name="Слой 1" viewBox="0 0 2846.49 765.7">
  <defs>
    <style>
      .cls-1 {
        fill: #fff;
      }

      .cls-2 {
        fill: #eed936;
      }

      .cls-3 {
        fill: #cecece;
      }
    </style>
  </defs>
  <g>
    <path class="cls-1" d="M194.53,690.14l-1.66,10.38c-30.15-4.78-51.16-16-62.45-33.34-7.64-11.72-9.29-23.71-10.73-34.27-1.66-12.03-2.96-21.54-11.77-28.97-10.13-8.52-23.47-8.44-35.24-8.34-12.66,.09-25.2,2.95-37.4,8.51l14.38,6.78L0,621.77l27.83-42.54,1.25,16.17c14.12-6.74,28.73-10.21,43.5-10.31,12.91-.13,29-.21,42.11,10.82,11.91,10.03,13.69,23.01,15.42,35.57,1.37,9.94,2.78,20.21,9.13,29.97,9.61,14.74,28.21,24.4,55.3,28.7Z"></path>
    <g>
      <path class="cls-1" d="M259.72,620.08c-1.41,31.76-6.86,60.49-14.08,85.64-.1,.49-.26,1.17-.56,1.94,0,0-.91,2.97-3.44,4.85-5.03,3.74-13.98,1.94-18.53-2.02-8.45-7.34-4.16-25.78,4.39-62.67,2.86-12.31,5.24-20.13,7.39-26.43,3.26-9.52,6.75-17.82,10.01-24.76,1.63,.61,3.28,1.22,4.97,1.85,3.3,1.22,6.72,2.45,10.19,3.68,.03,5.84-.08,11.8-.35,17.91Z"></path>
      <path class="cls-3" d="M438.91,765.7h-33.95c-7.21,0-13.01-5.85-13.01-13.03v-14.69c0-4.11-3.34-7.43-7.43-7.43-.01,0-.07,.02-.1,0-.28-.2,.98-2.5,2.46-4.99,15.23,1.22,30.45,2.44,45.68,3.67,2.12,12.16,4.24,24.31,6.35,36.47Z"></path>
      <path class="cls-3" d="M498.48,711.51c-1.15,.45-5.29,1.45-9.43,2.08-2.77,.43-5.11,.64-6.79,.74-1.37-9.41-6.01-41.37-6.35-43.74-1.48-10.2-2.7-18.88-5.22-30.76-1.71-8.11-3.41-14.8-4.66-19.48,3.18-.6,6.42-1.24,9.71-1.95,1.95-.41,3.87-.84,5.76-1.27,.32,.24,.71,.58,1.09,1.05,.9,1.13,1.17,2.28,1.24,2.57,1.18,4.7,28.42,85.33,14.65,90.76Z"></path>
      <g>
        <g>
          <path class="cls-1" d="M586.92,460.73c-.25-5.05-.56-9.69-.97-14.14-1.6-18.38-3.81-32.69-5.72-43.56-7.73-44.31-13.3-76.19-29.35-117.73-.97-2.53-1.75-4.58-2.4-6.24-1.19-2.99-1.91-4.75-2.35-5.57-1.6-2.89-3.44-5.62-5.5-8.17h0c7.1-15.25,12.27-28.88,16.04-40,5.5-16.28,11.27-33.62,14.32-57.11,2.76-21.28,1.95-37.27,1.07-52.84-1.73-30.96-7.57-50.38-19.17-89.26-1.66-5.59-6.81-22.38-17.47-25.38-6.28-1.78-11.62,.36-11.62,.36-1.26,.51-4.51,1.98-6.93,5.24-4.01,5.41-3.22,12.3-3.04,14.1,1.75,17.73-3.28,77.49-4.88,91.51-4.41,38.58-21.53,68.57-35.04,92.24-6.41,11.24-12.67,20.59-17.86,27.83-11.02-.91-22.59-1.19-34.46-.94-.22-44.6-3.54-82.45-7.28-111.94,0,0-2.04-24.73-26.6-87.33-2.13-5.45-8.68-21.73-19.54-23.83-6.41-1.24-11.55,1.33-11.55,1.33-1.2,.61-4.32,2.36-6.46,5.81-3.54,5.72-2.17,12.53-1.84,14.31,2.17,11.77,2.41,40.9,2.82,91.59,.11,13.38-.66,52.96-18.62,97.08-4.12,10.1-8.36,18.57-11.95,25.12,0,0-.01,0-.02,0-23.05,4.75-45.03,10.53-64.32,16.69-7.56,2.4-14.59,4.85-21.08,7.26,0,0-.01,0-.02,0-4.12,3.46-12.42,11.39-17.38,24.49-4.59,12.15-4.05,22.77-3.41,28.07,11.71,75.22,23.42,150.44,35.13,225.66,.32,4.23,1.2,12.13,4.26,21.45,3.07,9.33,8.32,20.09,17.38,30.01,10.14,11.11,20.85,16.66,25.61,18.86,4.87,2.25,9.19,3.65,12.39,4.52-3.66,.48-12.67,2.18-20.42,9.55-13.22,12.56-11.15,30.56-10.87,32.62-1.35,34.43-2.7,68.86-4.05,103.29h10.5c16.39,0,32.77,0,49.16,.01,7.18,0,13.03-5.85,13.03-13.03v-14.69c0-4.11,3.32-7.43,7.43-7.43h75.25c.04,1.86,.1,4.88,.12,8.65,.13,12.63-.19,16.44,2.04,21.1,.69,1.41,1.83,3.34,3.79,5.4h34.8c7.24,0,13.1-5.92,13.03-13.15l-.37-36.51c4.83-.1,12.13-.64,20.73-2.77,6.89-1.71,10.33-2.55,12.41-4.31,3.79-3.19,5.35-8.99,3.14-23.58-1.04-7.01-2.95-16.05-5.92-27.84-2.75-10.93-6.61-25.14-11.96-41.68,40.87-5.82,59.51-24.5,66.5-32.77,24.12-28.76,22.19-68.34,19.49-122.35Zm-89.53,247.3c-1.72,.84-7.02,1.66-8.71,1.92-2.56,.39-4.72,.59-6.27,.68-1.26-8.69-5.55-38.22-5.87-40.41-1.37-9.42-2.5-17.44-4.82-28.42-1.58-7.5-3.15-13.68-4.3-18,2.94-.55,5.94-1.14,8.97-1.8,1.8-.38,3.57-.77,5.32-1.17,.33,.81,.83,2.07,1.44,3.6,15.94,40.57,22.66,79.48,14.24,83.6Z"></path>
          <path class="cls-3" d="M343.6,329.89c-4.81,1.98-10.05,3.87-15.74,5.54-15.56,4.58-29.78,6.15-41.45,6.43,0,0-13.71,1.64-22.6-3.46,0,0-7.05-4.04-9.98-12.28-4.86-13.65,12.98-36.82,43.89-56.52-.66,3.24-1.34,8-1.11,13.74,.22,5.42,.8,16.63,8.42,27.7,2.38,3.46,8.63,12.27,20.62,16.63,7.47,2.72,14.12,2.59,17.96,2.21Z"></path>
          <path class="cls-3" d="M379.37,63.99c-4.55-16.72-9.52-30.31-13.28-39.75,4.21,12.15,9.5,29.41,13.63,50.54,2.24,11.48,10.7,57.6,3.32,119.69-1.98,16.71-4.52,29.65-7.3,39.8-1.64,6.05-3.37,11.11-5.09,15.39-3.74,9.29-7.51,14.9-10.56,18.94-8.14,10.81-16.96,18.09-23.27,22.61,6.41-11.95,13.07-26.04,19.07-42.14,1.54-4.14,3.04-8.41,4.48-12.81,3.54-10.82,6.74-22.43,9.36-34.8,16.18-76.44,1.78-140.93-9.46-176.52-.67-2.11-3.36-2.7-4.86-1.08l-.04,.04c-.59,.64-.85,1.52-.73,2.38,4.98,34.07,5.11,62.71,4.12,83.41-1.75,36.38-4.36,81.2-29.59,129-.56,1.05-1.11,2.09-1.68,3.12-1.12,2.06-2.26,4.06-3.39,6-7.87,13.46-15.88,24.07-22.23,31.74-.96,1.16-1.4,2.67-1.14,4.15,.91,5.28,2.29,9.7,3.63,13.17,2.53,6.56,5.4,14.02,12.63,19.95,3.75,3.07,7.6,4.85,10.69,5.91,1.5,.52,3.14,.27,4.47-.6,5.17-3.39,11.84-8.36,18.64-15.28,6.19-6.31,19.2-21.07,29.25-56.8,1.43-5.12,2.82-10.67,4.1-16.69h0c.9-4.2,1.75-8.63,2.56-13.29,12.35-71.82-.12-129.55-7.33-156.07Zm-23.59,128.81c1.04-3.73,4.52-16.2,5.65-15.96,1.11,.23-.13,12.73-2.99,24.6-2.81,11.64-7.47,23.91-8.65,23.6-1.37-.36,2-17.98,5.99-32.25Z"></path>
          <path class="cls-1" d="M358.45,201.45c-2.81,11.64-7.47,23.91-8.65,23.6-1.37-.36,2-17.98,5.99-32.25,1.04-3.73,4.52-16.2,5.65-15.96,1.11,.23-.13,12.73-2.99,24.6Z"></path>
          <path class="cls-3" d="M397.67,198.79c-1.86-.16,.31-23.45-1-52.53-.1-2.24-.42-8.88,.33-8.98,.55-.07,1.43,3.41,1.75,4.64,3.44,13.57,1.46,57.08-1.08,56.88Z"></path>
        </g>
        <g>
          <path class="cls-3" d="M483.89,319.45c-3.9,1.29-9.41,2.91-16.15,4.2-10.75,2.06-23.56,4.51-37.69,.79-7.45-1.96-19.71-5.19-23.61-13.3-6-12.49,8.19-35.75,36.79-55.62-.92,3.17-2,7.86-2.26,13.6-.24,5.42-.59,16.64,6.07,28.31,2.08,3.65,7.56,12.95,19.14,18.3,7.21,3.34,13.85,3.77,17.7,3.71Z"></path>
          <path class="cls-3" d="M541.88,57.49c-3.13-17.04-6.94-31-9.9-40.73,3.18,12.47,7,30.1,9.34,51.5,1.27,11.63,5.82,58.3-6.75,119.55-6.14,29.92-13.08,47.34-19.26,58.24-3.64,6.43-7.02,10.59-9.82,13.71-.74,.82-1.47,1.62-2.21,2.39-8.32,8.74-16.75,14.53-22.88,18.18,4.47-6.88,9.09-14.52,13.67-22.93,2.85-5.22,5.68-10.73,8.44-16.54,6.69-14.04,12.99-29.78,18.23-47.2,22.55-74.81,13.61-140.28,5.41-176.69-.49-2.16-3.12-2.97-4.75-1.48l-.04,.04c-.64,.59-.98,1.44-.93,2.31,2.1,34.36-.17,62.91-2.9,83.46-4.8,36.11-11.17,80.54-40.32,126.06-1.44,2.25-2.89,4.42-4.33,6.52-2.22,3.22-4.44,6.26-6.63,9.14-7.17,9.43-14.04,17.01-19.69,22.76-1.05,1.07-1.62,2.54-1.49,4.03,.46,5.34,1.46,9.86,2.5,13.43,1.97,6.75,4.2,14.43,10.91,20.94,3.48,3.37,7.16,5.48,10.15,6.79,1.46,.64,3.12,.53,4.52-.22,5.43-2.94,12.5-7.33,19.86-13.67,4.73-4.07,13.21-12.06,22.36-28.67,2.78-5.04,5.62-10.88,8.45-17.64,4.23-10.15,8.42-22.38,12.26-37.14,18.35-70.52,10.76-129.1,5.81-156.14Zm-34.33,126.37c1.35-3.63,5.87-15.76,6.98-15.42,1.08,.33-1.2,12.67-5.05,24.26-3.77,11.37-9.45,23.21-10.59,22.79-1.34-.48,3.5-17.74,8.67-31.63Z"></path>
          <path class="cls-1" d="M509.47,192.71c-3.77,11.37-9.45,23.21-10.59,22.79-1.34-.48,3.5-17.74,8.67-31.63,1.35-3.63,5.87-15.76,6.98-15.42,1.08,.33-1.2,12.67-5.05,24.26Z"></path>
          <path class="cls-3" d="M548.79,193.35c-1.85-.31,2.27-23.33,3.42-52.43,.09-2.23,.33-8.88,1.08-8.91,.55-.02,1.14,3.51,1.34,4.76,2.3,13.82-3.33,57-5.85,56.59Z"></path>
        </g>
      </g>
      <path class="cls-3" d="M286.72,605.53l-.33-.3c-6.93-6.31-21.49-25.8-27.88-51.07-5.68-22.42-21.52-115.01-37.28-243.63-1.29-10.51,.91-21.16,6.26-30.31,2.55-4.36,5.09-8.71,7.64-13.07h0c-1.17,.41-2.47,.89-3.88,1.43-.27,.1-.55,.2-.83,.3-.53,.2-1.08,.41-1.64,.62-.08,.03-.17,.06-.26,.1-.3,.12-.62,.24-.93,.36-.65,.25-1.3,.51-1.94,.75-.33,.13-.67,.25-1.01,.39-.15,.06-.3,.12-.46,.18-1.86,.73-3.83,1.51-5.9,2.35-5.48,2.23-10.41,4.23-16.66,7.12-.03,.01-.07,.03-.1,.05-.19,.08-.38,.17-.57,.26,0,0,0,0-.01,0-10.54,4.93-21.45,10.91-27.67,18.63-.49,.61-.89,1.16-1.24,1.64-1.4,1.98-4.04,6.05-7.01,14.86-6.45,19.1-6.18,35.82-6.03,40.98,.12,4.39,2.87,91.35,19.38,172.7,1.11,5.47,3.41,16.4,10.24,29,0,0,3.68,6.79,8.03,12.44,7.24,9.41,17.38,15.55,30.57,21.28-2.12,3.37-4.49,7.45-6.86,12.19-6.95,13.94-9.83,25.55-11.75,33.47-2.27,9.36-4.5,21.77-5.1,36.57-1.24-.38-4.75-1.27-8.65,.22-3.72,1.43-5.62,4.21-6.65,5.76-3.54,5.34-4.54,13.35-1.11,19.29,1.19,2.05,3.97,4.1,9.53,8.19,5.39,3.97,8.08,5.96,10.76,7.16,1.83,.82,5.23,2.02,20.04,2.37,5.42,.13,10.03,.08,13.52,0v34.84c0,7.19,5.83,13.02,13.02,13.02h30.31c-.18-.13-.51-.39-.88-.77-2.69-2.7-2.44-6.86-2.59-8.24-3.96-34.68,2.7-93.38,2.7-93.38,1.31-11.6,2.27-20.28,8.86-28.82,6.05-7.84,13.94-11.8,19.28-13.83,.11-.04,.22-.08,.33-.13l-.14-.05c-9.29-3.23-17.83-8.31-25.1-14.94Zm-27.95,16.31c-1.34,30.29-6.54,57.68-13.42,81.67-.17,.59-.34,1.2-.52,1.79,0,.02-.01,.04-.01,.06-.59,1.6-1.57,3.37-3.28,4.63-4.79,3.57-13.33,1.85-17.67-1.92-8.05-7-3.97-24.58,4.19-59.76,2.73-11.74,5-19.2,7.05-25.2,3.11-9.08,6.43-16.99,9.55-23.61,1.55,.58,3.13,1.17,4.74,1.76,3.14,1.16,6.4,2.34,9.72,3.51,.03,5.56-.07,11.25-.33,17.08Z"></path>
    </g>
    <g>
      <path class="cls-3" d="M418.81,453.44c-.7-1.46-4.38-.58-11.9-.46,0,0-1.88,.03-11.44-.46-12.86-.65-26.26-8.02-39.13-15.1-9.36-5.15-11.18-6.99-17.16-8.47-4.76-1.18-11.96-2.07-19.91,.23-5.76,1.66-10.81,4.68-10.53,5.49,.46,1.32,14.05-5.87,27.69-.23,.98,.41,.82,.4,6.18,3.43,1.46,.83,13.86,7.82,21.51,11.67,14.56,7.33,25.58,10.17,27.92,10.75,12.37,3.1,17.78,2.28,21.74-.23,2.97-1.89,5.75-5.13,5.03-6.64Z"></path>
      <path class="cls-3" d="M395.32,474.15c.57-.93,.18-2.28,.15-2.4-.48-1.63-2.14-2.45-2.75-2.75-4.75-2.33-27.13-5.35-31.12-5.95-5.61-.85-13.58-3.69-29.52-9.38-.96-.34-7.24-2.59-15.79-3.66-7.72-.97-11.01-.2-13.27,.69-5.84,2.28-9.67,7.59-8.92,8.7,.89,1.31,7.24-4.63,13.08-2.55,5.23,1.86,4.02,7.99,10.26,16.73,6.91,9.68,16.53,13.54,19.11,14.54,6.08,2.35,11.11,2.62,15.44,2.85,10.73,.57,17.58-1.91,20.25-3.01,6.85-2.82,8.21-5.67,8.59-6.6,1.09-2.69-.07-4.11,1.23-5.56,2.96-3.31,11.54,1.19,13.27-1.65Z"></path>
      <path class="cls-3" d="M390.94,482.28c1.39-.16,2.06,.31,2.24,.45,1.72,1.32,.83,4.94,.69,5.49-1.3,5.1-7.14,7.72-10.98,9.38-3.91,1.69-11.1,4.12-21.97,3.66-10.38-.44-19.12-3.31-18.99-4.12,.13-.86,10.05,2.41,23.06-.81,9.42-2.33,15.75-3.87,19.27-8.8,.8-1.13,3.19-4.85,6.69-5.25Z"></path>
      <path class="cls-3" d="M494.89,451.02c.46-.96,2.88-.38,7.82-.3,0,0,1.23,.02,7.52-.3,8.45-.43,17.26-5.27,25.72-9.93,5.72-3.14,7.18-4.9,11.28-5.57,1.54-.25,6.54-.98,11.62,1.81,4.84,2.66,7.67,7.38,7.09,8.01-.88,.96-8.94-8.46-16.9-6.21-1.15,.33-1.45,.78-4.06,2.26-.96,.54-9.11,5.14-14.14,7.67-9.57,4.82-16.81,6.68-18.35,7.07-8.13,2.04-11.69,1.5-14.29-.15-1.95-1.24-3.78-3.37-3.31-4.36Z"></path>
      <path class="cls-3" d="M502.04,474.42c-.41-.67-.13-1.64-.11-1.73,.35-1.18,1.55-1.77,1.98-1.98,3.43-1.68,19.59-3.86,22.46-4.29,4.05-.61,9.8-2.67,21.31-6.77,.69-.25,5.22-1.87,11.4-2.64,5.57-.7,7.94-.14,9.58,.5,4.21,1.64,6.98,5.48,6.44,6.28-.64,.94-5.22-3.34-9.44-1.84-3.77,1.35-2.9,5.77-7.41,12.08-4.99,6.99-11.93,9.78-13.79,10.5-4.39,1.7-8.02,1.89-11.15,2.06-7.74,.41-12.69-1.38-14.61-2.17-4.94-2.04-5.92-4.09-6.2-4.77-.79-1.94,.05-2.96-.88-4.01-2.14-2.39-8.33,.86-9.58-1.19Z"></path>
      <path class="cls-3" d="M535.83,493.37c-.11,.11-.48,.5-.57,1.09-.21,1.44,1.51,2.73,1.97,3.06,2.8,2.03,6.86,.89,9.49,.11,2.69-.79,7.34-2.59,12.63-7.4,5.05-4.59,8.26-9.72,7.85-10.07-.43-.38-4.06,5.44-11.98,9.3-5.78,2.81-9.36,4.54-13.43,3.67-1.28-.27-4.54-1.22-5.96,.24Z"></path>
      <path class="cls-3" d="M546.72,566.02c-4.39,.19-10.71,.44-18.31,.69-16.32,.53-37.77,1.22-57.89,.92-20.55-.31-43.77-.66-72.99-5.72-19.29-3.34-34.98-7.65-45.76-10.98,.5,1.49,1.3,3.58,2.52,5.95,4.7,9.18,11.42,14.31,16.48,18.08,8.34,6.22,16.72,9.72,23.42,11.75,42.99,.13,85.99,.25,128.98,.38,4.19-1.15,15.86-4.95,21.51-15.79,.93-1.78,1.59-3.55,2.06-5.26Z"></path>
    </g>
  </g>
  <g>
    <g>
      <path class="cls-1" d="M866.84,242.44c60.48,0,101.55,36.21,110.92,90.21h-75.67c-6.79-15.2-20.37-23.92-36.54-23.92-24.26,0-39.13,19.72-39.13,50.12s14.87,50.12,39.13,50.12c16.17,0,29.75-8.73,36.54-23.93h75.67c-9.38,54-50.44,90.21-110.92,90.21-70.16,0-113.17-48.18-113.17-116.41s43.01-116.41,113.17-116.41Z"></path>
      <path class="cls-1" d="M1003.61,291.26h71.78v182.38h-71.78v-182.38Zm54.01,88.28c0-44.3,35.56-89.57,77.59-89.57v76.64h-20.37c-25.86,0-39.45,7.43-39.45,32.33l-17.77-19.4Z"></path>
      <path class="cls-1" d="M1281.37,291.26h79.23l-116.74,269.68h-78.57l45.92-96.36-75.99-173.32h79.86l34.28,92.48,32.01-92.48Z"></path>
      <path class="cls-1" d="M1495.41,289c42.03,0,75.35,34.6,75.35,93.46s-33.31,93.45-75.35,93.45c-24.26,0-41.39-10.67-50.12-27.16v112.21h-71.78V291.26h71.78v24.9c8.73-16.49,25.86-27.16,50.12-27.16Zm-23.92,62.73c-14.88,0-26.52,10.67-26.52,30.72s11.64,30.71,26.52,30.71,26.51-10.67,26.51-30.71-11.64-30.72-26.51-30.72Z"></path>
      <path class="cls-1" d="M1582.06,351.08v-59.82h124.17v59.82h-124.17Zm22.64-103.8h71.78v152.95c0,8.4,3.89,12.29,13.26,12.29h17.13v61.11h-27.15c-42.69,0-75.02-18.11-75.02-74.7V247.29Z"></path>
      <path class="cls-1" d="M1724.66,382.45c0-58.21,41.39-93.46,96.36-93.46s96.36,35.25,96.36,93.46-41.39,93.45-96.36,93.45-96.36-35.25-96.36-93.45Zm119.96,0c0-21.67-11-31.37-23.6-31.37s-23.62,9.71-23.62,31.37,10.68,31.36,23.62,31.36,23.6-9.7,23.6-31.36Z"></path>
      <path class="cls-2" d="M2080.33,322.95c-5.49-8.73-15.85-14.22-30.71-14.22-27.81,0-43.33,19.72-43.33,50.12,0,35.57,16.17,53.36,51.41,53.36,16.17,0,29.43-5.83,40.1-20.05h-57.24v-50.77h116.74v71.78c-15.85,27.49-48.18,62.08-107.36,62.08-72.12,0-116.41-48.18-116.41-116.41s43.97-116.41,115.77-116.41c60.78,0,99.91,31.68,106.7,80.52h-75.67Z"></path>
      <path class="cls-2" d="M2253.32,387.94c0,17.47,10.02,28.14,25.54,28.14s25.54-10.67,25.54-28.14l4.85,49.15c-8.73,19.4-28.45,37.83-60.8,37.83-42.03,0-66.61-30.72-66.61-77.93v-105.74h71.48v96.68Zm122.87,85.69h-71.78v-182.38h71.78v182.38Z"></path>
      <path class="cls-2" d="M2548.85,322.95c-5.49-8.73-15.85-14.22-30.71-14.22-27.81,0-43.33,19.72-43.33,50.12,0,35.57,16.17,53.36,51.41,53.36,16.17,0,29.43-5.83,40.1-20.05h-57.24v-50.77h116.74v71.78c-15.85,27.49-48.18,62.08-107.36,62.08-72.12,0-116.41-48.18-116.41-116.41s43.97-116.41,115.77-116.41c60.78,0,99.91,31.68,106.7,80.52h-75.67Z"></path>
      <path class="cls-2" d="M2721.84,387.94c0,17.47,10.02,28.14,25.54,28.14s25.54-10.67,25.54-28.14l4.85,49.15c-8.73,19.4-28.47,37.83-60.8,37.83-42.03,0-66.61-30.72-66.61-77.93v-105.74h71.48v96.68Zm122.87,85.69h-71.78v-182.38h71.78v182.38Z"></path>
    </g>
    <g>
      <path class="cls-3" d="M1606.45,634.35c-6.25,0-11.89-1.11-16.89-3.35-5.01-2.23-9.14-5.38-12.4-9.45-3.26-4.07-5.39-8.88-6.4-14.43l9.38-1.64c1.44,6.04,4.56,10.81,9.35,14.33,4.79,3.52,10.57,5.28,17.35,5.28s12.42-1.67,16.66-5.02c4.24-3.35,6.36-7.73,6.36-13.15,0-4.02-1.18-7.24-3.54-9.64-2.36-2.41-6.36-4.46-12.01-6.17l-20.99-6.56c-12.68-3.98-19.03-11.5-19.03-22.57,0-5.16,1.28-9.7,3.84-13.61,2.56-3.91,6.12-6.96,10.69-9.15,4.57-2.19,9.92-3.26,16.04-3.21,5.99,0,11.36,1.13,16.11,3.38,4.74,2.25,8.65,5.44,11.71,9.55,3.06,4.11,5.09,8.99,6.1,14.63l-9.64,1.84c-.61-4.02-2.02-7.54-4.23-10.56-2.21-3.02-5.04-5.37-8.5-7.05-3.46-1.68-7.3-2.55-11.55-2.59-4.02,0-7.61,.7-10.76,2.1-3.15,1.4-5.63,3.34-7.45,5.81-1.82,2.47-2.72,5.3-2.72,8.5,0,3.5,1.26,6.46,3.77,8.89,2.51,2.43,6.51,4.47,11.97,6.13l18.04,5.45c7.61,2.27,13.1,5.34,16.47,9.18,3.37,3.85,5.05,8.99,5.05,15.42,0,5.55-1.36,10.41-4.07,14.56-2.71,4.16-6.53,7.38-11.45,9.68-4.92,2.3-10.68,3.44-17.29,3.44Zm-5.97-94.47v-15.02h9.64v15.02h-9.64Zm0,105.43v-14.96h9.64v14.96h-9.64Z"></path>
      <path class="cls-3" d="M1652.83,632.38v-94.47h8.86l37.13,79.45,36.94-79.45h8.99v94.4h-9.18v-72.89l-33.65,72.95h-6.23l-33.59-72.95v72.95h-9.25Z"></path>
      <path class="cls-3" d="M1763.11,632.38v-94.47h59.04v9.25h-49.4v32.67h41.53v9.25h-41.53v34.05h49.4v9.25h-59.04Z"></path>
      <path class="cls-3" d="M1837.89,632.38v-94.47h8.86l37.13,79.45,36.94-79.45h8.99v94.4h-9.18v-72.89l-33.65,72.95h-6.23l-33.59-72.95v72.95h-9.25Z"></path>
      <path class="cls-3" d="M1948.17,632.38v-94.47h59.04v9.25h-49.4v32.67h41.53v9.25h-41.53v34.05h49.4v9.25h-59.04Z"></path>
      <path class="cls-3" d="M2049.2,632.38v-94.47h36.48c5.29,0,9.91,1.09,13.84,3.28,3.94,2.19,7,5.13,9.18,8.82,2.19,3.7,3.28,7.77,3.28,12.23,0,5.07-1.36,9.59-4.07,13.55-2.71,3.96-6.34,6.7-10.89,8.23l-.13-3.21c6.12,1.75,10.93,4.81,14.43,9.18,3.5,4.37,5.25,9.67,5.25,15.88,0,5.47-1.16,10.18-3.48,14.14-2.32,3.96-5.58,7.01-9.77,9.15-4.2,2.14-9.08,3.21-14.63,3.21h-39.49Zm9.71-54.19h26.7c3.02,0,5.77-.69,8.27-2.07,2.49-1.38,4.47-3.27,5.94-5.67,1.46-2.4,2.2-5.18,2.2-8.33,0-4.46-1.54-8.09-4.63-10.89-3.08-2.8-7.01-4.2-11.78-4.2h-26.7v31.16Zm0,44.94h27.42c3.85,0,7.3-.69,10.37-2.07,3.06-1.38,5.48-3.34,7.25-5.87,1.77-2.54,2.66-5.6,2.66-9.18s-.81-6.65-2.43-9.45c-1.62-2.8-3.82-5.04-6.59-6.72-2.78-1.68-5.94-2.53-9.48-2.53h-29.19v35.82Z"></path>
      <path class="cls-3" d="M2130.94,632.38v-94.47h9.64v94.47h-9.64Z"></path>
      <path class="cls-3" d="M2161.58,632.38v-94.47h9.64v85.22h44.87v9.25h-54.52Z"></path>
      <path class="cls-3" d="M2228.56,632.38v-94.47h9.64v85.22h44.87v9.25h-54.52Z"></path>
      <path class="cls-3" d="M2295.54,632.38v-94.47h9.64v94.47h-9.64Z"></path>
      <path class="cls-3" d="M2363.11,634.35c-9.4,0-17.34-2.09-23.81-6.26-6.47-4.18-11.37-9.96-14.7-17.35-3.32-7.39-4.99-15.92-4.99-25.59s1.66-18.19,4.99-25.59c3.32-7.39,8.22-13.18,14.7-17.35,6.47-4.18,14.41-6.26,23.81-6.26s17.4,2.09,23.85,6.26c6.45,4.18,11.35,9.96,14.69,17.35,3.35,7.39,5.02,15.92,5.02,25.59s-1.67,18.19-5.02,25.59c-3.35,7.39-8.24,13.18-14.69,17.35-6.45,4.18-14.4,6.26-23.85,6.26Zm0-9.25c7.39,0,13.56-1.68,18.5-5.05,4.94-3.37,8.65-8.06,11.12-14.07,2.47-6.01,3.71-12.96,3.71-20.83s-1.24-14.8-3.71-20.8c-2.47-5.99-6.18-10.67-11.12-14.04-4.94-3.37-11.11-5.07-18.5-5.12-7.39,0-13.54,1.68-18.44,5.05-4.9,3.37-8.58,8.06-11.05,14.07-2.47,6.01-3.73,12.96-3.77,20.83-.04,7.87,1.17,14.79,3.64,20.76,2.47,5.97,6.18,10.65,11.12,14.04,4.94,3.39,11.11,5.11,18.5,5.15Z"></path>
      <path class="cls-3" d="M2419.79,632.38v-94.47h9.71l52.02,77.41v-77.41h9.71v94.47h-9.71l-52.02-77.48v77.48h-9.71Z"></path>
      <path class="cls-3" d="M2503.05,632.38l32.54-94.47h12.79l32.54,94.47h-10.04l-30.9-89.09h3.81l-30.7,89.09h-10.04Zm14.5-22.9v-9.05h48.81v9.05h-48.81Z"></path>
      <path class="cls-3" d="M2594.04,632.38v-94.47h9.64v94.47h-9.64Z"></path>
      <path class="cls-3" d="M2623.36,632.38v-94.47h36.48c.92,0,1.96,.03,3.12,.1,1.16,.07,2.33,.21,3.51,.43,4.94,.74,9.13,2.46,12.56,5.15,3.43,2.69,6.04,6.07,7.81,10.14,1.77,4.07,2.66,8.57,2.66,13.52,0,7.13-1.88,13.32-5.64,18.57s-9.14,8.55-16.14,9.91l-3.35,.79h-31.36v35.89h-9.64Zm9.64-45.07h26.57c.79,0,1.7-.04,2.76-.13,1.05-.09,2.08-.24,3.08-.46,3.24-.7,5.89-2.03,7.97-4,2.08-1.97,3.63-4.31,4.66-7.02,1.03-2.71,1.54-5.53,1.54-8.46s-.51-5.76-1.54-8.5c-1.03-2.73-2.58-5.08-4.66-7.05-2.08-1.97-4.73-3.3-7.97-4-1.01-.22-2.03-.36-3.08-.43-1.05-.07-1.97-.1-2.76-.1h-26.57v40.15Zm47.56,45.07l-18.63-38.44,9.25-3.54,20.47,41.99h-11.09Z"></path>
      <path class="cls-3" d="M2706.09,632.38v-94.47h59.04v9.25h-49.4v32.67h41.53v9.25h-41.53v34.05h49.4v9.25h-59.04Z"></path>
      <path class="cls-3" d="M2810.2,634.35c-6.6,0-12.54-1.1-17.81-3.31-5.27-2.21-9.62-5.35-13.05-9.41-3.43-4.07-5.67-8.9-6.72-14.5l9.84-1.64c1.57,6.12,4.9,10.92,9.97,14.4,5.07,3.48,11.13,5.22,18.17,5.22,4.63,0,8.79-.73,12.46-2.2,3.67-1.46,6.56-3.55,8.66-6.26,2.1-2.71,3.15-5.93,3.15-9.64,0-2.45-.44-4.54-1.31-6.26-.88-1.73-2.03-3.16-3.48-4.3-1.44-1.14-3.02-2.09-4.72-2.85-1.71-.77-3.37-1.39-4.99-1.87l-23.95-7.15c-2.89-.83-5.56-1.89-8-3.18-2.45-1.29-4.58-2.84-6.4-4.66-1.82-1.81-3.23-3.95-4.23-6.4-1.01-2.45-1.51-5.25-1.51-8.4,0-5.34,1.4-9.95,4.2-13.84,2.8-3.89,6.63-6.89,11.48-8.99,4.86-2.1,10.39-3.13,16.6-3.08,6.3,0,11.93,1.12,16.89,3.35s9.06,5.41,12.3,9.54c3.24,4.13,5.38,9.02,6.43,14.66l-10.1,1.84c-.66-4.11-2.17-7.68-4.53-10.69-2.36-3.02-5.37-5.35-9.02-6.99-3.65-1.64-7.67-2.48-12.04-2.53-4.24,0-8.02,.71-11.32,2.13-3.3,1.42-5.92,3.36-7.84,5.81-1.93,2.45-2.89,5.25-2.89,8.4s.89,5.75,2.66,7.68c1.77,1.93,3.96,3.43,6.56,4.53,2.6,1.09,5.13,1.99,7.58,2.69l18.5,5.45c1.92,.52,4.19,1.28,6.79,2.26,2.6,.98,5.14,2.38,7.61,4.2,2.47,1.82,4.52,4.19,6.13,7.12,1.62,2.93,2.43,6.65,2.43,11.15s-.86,8.29-2.59,11.74c-1.73,3.46-4.15,6.36-7.28,8.72-3.13,2.36-6.78,4.17-10.96,5.41-4.18,1.25-8.74,1.87-13.68,1.87Z"></path>
    </g>
  </g>
</svg>
