<?xml version="1.0" encoding="UTF-8"?>
<svg xmlns="http://www.w3.org/2000/svg" id="_Слой_1" data-name="Слой 1" viewBox="0 0 3348.47 989.63">
  <defs>
    <style>
      .cls-1 {
        fill: #fff;
      }

      .cls-2 {
        fill: #eed936;
      }

      .cls-3 {
        fill: #fb0200;
      }

      .cls-4 {
        fill: #cecece;
      }
    </style>
  </defs>
  <g>
    <path class="cls-3" d="M682.71,330.26c-10.68-9.17-21.86-17.73-33.54-25.66-2.68-1.8-5.37-3.6-8.11-5.34-4.72-3.04-9.5-5.96-14.36-8.76-4.16-2.42-8.38-4.78-12.65-7.02-1.12-.59-2.27-1.18-3.39-1.77-3.63-1.89-7.31-3.72-11.03-5.46-2.09-1-4.22-2.01-6.34-2.98-24.16-10.91-49.67-19.35-76.22-24.95-8.2-1.77-16.49-3.22-24.89-4.42-1.33-.18-2.65-.35-4.01-.53-2.18-.29-4.37-.56-6.58-.8-2.6-.32-5.22-.59-7.85-.83-4.16-.38-8.35-.71-12.54-.91-7.37-.47-14.81-.68-22.27-.68-1.42,0-2.83,0-4.22,.03-2.48,.03-4.96,.06-7.4,.15-201.57,6.14-363.09,171.52-363.09,374.56,0,41.12,6.64,80.67,18.88,117.69,1.33,4.04,2.71,8.05,4.19,12,20.12,54.51,52.53,103.06,93.88,142.23,67.16,63.77,157.89,102.82,257.76,102.82,110.2,0,209.27-47.58,277.85-123.23,60.29-66.45,96.95-154.76,96.95-251.51,0-113.88-50.82-215.91-131.02-284.63Zm-214.37,573.89h4.87c4.87,0,8.85,3.95,8.85,8.85v17.49c-4.57-8.79-9.14-17.55-13.72-26.34Z"></path>
    <path d="M689.76,867.4c-12.77-.29-23.09-1.5-29.55-2.36-1.8-2.89-4.98-6.9-10-10.03-5.84-3.63-11.95-4.66-17.08-4.66-6.08,0-10.8,1.45-12.09,1.86-3.42-.24-6.84-.44-10.29-.65-8.35-.5-16.78-.94-25.37-1.27-71.11-2.95-150.34-.62-235.67,11.09-3.54,.47-7.08,.97-10.65,1.5-10.26,1.5-20.41,3.1-30.38,4.81-10.15,1.71-20.17,3.51-30,5.4-3.16,.62-6.28,1.24-9.38,1.86-5.28,1.03-10.53,2.12-15.72,3.22-4.54-4.22-9.56-7.17-14.48-8.88-9.64-3.36-19.08-2.15-24.69,2.95-5.84,5.19-6.4,13.45-6.4,16.75-9.14-1.74-18.58-2.86-26.84-2.18,67.16,63.77,157.89,102.82,257.76,102.82,110.2,0,209.27-47.58,277.85-123.23-6.05,.56-14.51,1.33-27.02,1Z"></path>
    <g>
      <path class="cls-1" d="M239.94,851.12l-2.04,12.8c-37.18-5.9-63.1-19.74-77.03-41.12-9.43-14.46-11.45-29.24-13.24-42.27-2.04-14.84-3.65-26.57-14.52-35.73-12.5-10.51-28.95-10.41-43.46-10.29-15.61,.11-31.08,3.64-46.13,10.49l17.73,8.37L0,766.79l34.33-52.47,1.54,19.94c17.42-8.31,35.43-12.59,53.65-12.72,15.93-.16,35.77-.26,51.94,13.34,14.69,12.37,16.89,28.39,19.01,43.87,1.69,12.26,3.43,24.93,11.26,36.96,11.85,18.18,34.79,30.09,68.21,35.4Z"></path>
      <g>
        <path class="cls-1" d="M320.35,764.69c-1.74,39.18-8.47,74.61-17.36,105.64-.12,.6-.32,1.44-.69,2.39,0,0-1.12,3.67-4.24,5.99-6.2,4.61-17.24,2.39-22.86-2.49-10.42-9.05-5.13-31.8,5.42-77.3,3.53-15.18,6.47-24.83,9.12-32.6,4.02-11.74,8.32-21.98,12.35-30.54,2.01,.75,4.05,1.51,6.13,2.28,4.06,1.5,8.28,3.03,12.57,4.54,.04,7.2-.1,14.56-.43,22.09Z"></path>
        <path class="cls-4" d="M541.37,944.31h-41.88c-8.9,0-16.04-7.21-16.04-16.07v-18.12c0-5.07-4.12-9.16-9.16-9.16-.02,0-.08,.03-.13,0-.35-.24,1.21-3.08,3.03-6.15,18.78,1.51,37.56,3.02,56.34,4.52,2.61,15,5.22,29.99,7.84,44.99Z"></path>
        <path class="cls-4" d="M614.85,877.47c-1.42,.56-6.53,1.79-11.63,2.57-3.41,.53-6.3,.78-8.37,.91-1.69-11.6-7.41-51.03-7.84-53.95-1.82-12.58-3.33-23.29-6.44-37.95-2.11-10.01-4.21-18.26-5.74-24.03,3.93-.73,7.92-1.53,11.98-2.4,2.4-.51,4.77-1.03,7.1-1.57,.4,.3,.87,.71,1.34,1.3,1.11,1.39,1.44,2.81,1.53,3.17,1.46,5.8,35.05,105.25,18.07,111.94Z"></path>
        <g>
          <g>
            <path class="cls-1" d="M723.93,568.15c-.3-6.23-.7-11.95-1.19-17.45-1.98-22.67-4.7-40.33-7.06-53.73-9.53-54.66-16.4-93.98-36.2-145.21-1.19-3.12-2.16-5.64-2.96-7.7-1.47-3.69-2.35-5.86-2.9-6.87-1.97-3.56-4.24-6.93-6.79-10.08h0c8.76-18.81,15.14-35.62,19.78-49.34,6.79-20.08,13.9-41.46,17.66-70.45,3.4-26.25,2.4-45.97,1.32-65.18-2.14-38.18-9.34-62.14-23.64-110.1-2.05-6.9-8.4-27.6-21.54-31.31-7.75-2.19-14.33,.44-14.33,.44-1.55,.62-5.56,2.45-8.55,6.47-4.95,6.67-3.97,15.17-3.75,17.39,2.15,21.86-4.04,95.58-6.02,112.87-5.43,47.58-26.56,84.58-43.22,113.77-7.91,13.86-15.62,25.4-22.03,34.33-13.6-1.12-27.87-1.47-42.51-1.15-.27-55.02-4.36-101.7-8.98-138.07,0,0-2.51-30.5-32.8-107.71-2.63-6.72-10.7-26.8-24.1-29.4-7.91-1.53-14.25,1.64-14.25,1.64-1.48,.75-5.33,2.91-7.97,7.17-4.37,7.06-2.68,15.46-2.27,17.65,2.68,14.52,2.97,50.44,3.48,112.97,.14,16.5-.82,65.32-22.96,119.74-5.08,12.46-10.31,22.91-14.74,30.98,0,0-.02,0-.03,0-28.43,5.86-55.54,12.98-79.34,20.59-9.32,2.96-18,5.98-26,8.95,0,0-.02,0-.03,0-5.09,4.27-15.32,14.05-21.43,30.2-5.66,14.98-4.99,28.09-4.21,34.63,14.44,92.78,28.89,185.56,43.33,278.34,.39,5.21,1.48,14.96,5.25,26.46,3.78,11.51,10.26,24.78,21.44,37.02,12.51,13.7,25.71,20.55,31.59,23.27,6.01,2.78,11.33,4.5,15.29,5.57-4.51,.59-15.63,2.69-25.19,11.78-16.31,15.49-13.75,37.69-13.41,40.24-1.66,42.47-3.33,84.93-4.99,127.4h12.95c20.21,0,40.42,0,60.63,.02,8.86,0,16.07-7.21,16.07-16.07v-18.12c0-5.07,4.1-9.16,9.16-9.16h92.81c.05,2.29,.12,6.02,.15,10.67,.16,15.58-.24,20.28,2.51,26.02,.85,1.74,2.25,4.12,4.67,6.66h42.92c8.92,0,16.16-7.3,16.07-16.22l-.46-45.04c5.96-.12,14.96-.79,25.57-3.42,8.49-2.11,12.74-3.14,15.31-5.31,4.67-3.94,6.6-11.09,3.88-29.08-1.28-8.65-3.64-19.79-7.3-34.33-3.39-13.48-8.16-31.01-14.75-51.41,50.41-7.18,73.41-30.22,82.03-40.42,29.75-35.47,27.37-84.29,24.04-150.92Zm-110.43,305.03c-2.13,1.04-8.66,2.05-10.75,2.37-3.15,.49-5.82,.72-7.73,.84-1.56-10.72-6.84-47.14-7.24-49.85-1.69-11.62-3.08-21.52-5.95-35.06-1.95-9.25-3.89-16.87-5.31-22.2,3.63-.68,7.32-1.41,11.07-2.22,2.22-.47,4.41-.95,6.56-1.45,.41,1,1.03,2.55,1.77,4.45,19.66,50.04,27.95,98.03,17.57,103.11Z"></path>
            <path class="cls-4" d="M423.81,406.77c-5.93,2.45-12.4,4.77-19.42,6.84-19.2,5.64-36.73,7.59-51.12,7.94,0,0-16.91,2.03-27.87-4.27,0,0-8.7-4.98-12.32-15.15-5.99-16.83,16.01-45.41,54.14-69.71-.82,4-1.65,9.87-1.37,16.95,.27,6.68,.99,20.52,10.39,34.17,2.94,4.27,10.64,15.14,25.43,20.51,9.22,3.35,17.41,3.2,22.15,2.73Z"></path>
            <path class="cls-4" d="M467.94,78.8c-5.61-20.63-11.74-37.39-16.38-49.03,5.2,14.99,11.72,36.28,16.81,62.34,2.77,14.16,13.2,71.05,4.1,147.63-2.45,20.61-5.58,36.57-9,49.1-2.03,7.47-4.15,13.71-6.28,18.99-4.62,11.45-9.26,18.38-13.02,23.37-10.04,13.33-20.92,22.31-28.7,27.88,7.91-14.74,16.12-32.12,23.52-51.98,1.9-5.1,3.75-10.37,5.53-15.81,4.37-13.34,8.31-27.66,11.55-42.93,19.96-94.28,2.19-173.83-11.66-217.73-.82-2.6-4.14-3.33-5.99-1.33l-.05,.05c-.72,.79-1.05,1.87-.9,2.93,6.14,42.02,6.3,77.35,5.08,102.88-2.15,44.87-5.38,100.15-36.5,159.11-.69,1.3-1.37,2.58-2.07,3.85-1.38,2.54-2.79,5-4.19,7.39-9.71,16.6-19.58,29.69-27.42,39.15-1.18,1.43-1.73,3.29-1.41,5.12,1.12,6.52,2.82,11.97,4.47,16.25,3.12,8.09,6.66,17.29,15.58,24.6,4.63,3.78,9.37,5.98,13.19,7.29,1.85,.64,3.88,.34,5.52-.74,6.38-4.18,14.61-10.31,22.99-18.85,7.63-7.78,23.68-25.99,36.08-70.06,1.77-6.31,3.47-13.16,5.06-20.58h0c1.11-5.18,2.16-10.64,3.15-16.39,15.24-88.58-.15-159.79-9.04-192.51Zm-29.09,158.88c1.28-4.6,5.57-19.98,6.96-19.68,1.37,.28-.16,15.7-3.68,30.35-3.46,14.36-9.22,29.5-10.67,29.11-1.7-.45,2.46-22.18,7.39-39.78Z"></path>
            <path class="cls-1" d="M442.13,248.34c-3.46,14.36-9.22,29.5-10.67,29.11-1.7-.45,2.46-22.18,7.39-39.78,1.28-4.6,5.57-19.98,6.96-19.68,1.37,.28-.16,15.7-3.68,30.35Z"></path>
            <path class="cls-4" d="M490.51,245.06c-2.3-.19,.38-28.92-1.23-64.79-.12-2.76-.51-10.95,.41-11.08,.68-.09,1.77,4.21,2.15,5.72,4.24,16.74,1.81,70.41-1.34,70.15Z"></path>
          </g>
          <g>
            <path class="cls-4" d="M596.85,393.88c-4.81,1.59-11.61,3.59-19.92,5.19-13.26,2.54-29.06,5.56-46.48,.97-9.19-2.42-24.31-6.4-29.12-16.4-7.4-15.4,10.11-44.09,45.38-68.61-1.14,3.91-2.46,9.69-2.79,16.78-.29,6.68-.73,20.53,7.49,34.92,2.57,4.5,9.33,15.97,23.61,22.57,8.9,4.11,17.08,4.65,21.84,4.58Z"></path>
            <path class="cls-4" d="M668.37,70.78c-3.86-21.02-8.56-38.24-12.21-50.23,3.92,15.38,8.63,37.13,11.52,63.53,1.57,14.34,7.17,71.9-8.32,147.45-7.57,36.91-16.14,58.39-23.76,71.83-4.49,7.93-8.66,13.07-12.11,16.92-.91,1.02-1.81,2-2.73,2.95-10.26,10.78-20.66,17.92-28.22,22.42,5.52-8.49,11.22-17.91,16.86-28.29,3.52-6.44,7.01-13.24,10.41-20.41,8.25-17.32,16.02-36.74,22.49-58.22,27.81-92.27,16.79-173.03,6.67-217.94-.6-2.67-3.85-3.67-5.86-1.82l-.05,.05c-.79,.72-1.21,1.78-1.15,2.85,2.59,42.38-.21,77.59-3.57,102.94-5.92,44.54-13.78,99.35-49.74,155.49-1.78,2.78-3.56,5.45-5.34,8.05-2.74,3.97-5.47,7.72-8.17,11.27-8.84,11.63-17.32,20.98-24.28,28.08-1.29,1.32-2,3.13-1.83,4.98,.57,6.59,1.81,12.16,3.09,16.57,2.43,8.32,5.19,17.8,13.46,25.83,4.29,4.16,8.83,6.75,12.52,8.38,1.8,.79,3.85,.66,5.57-.27,6.7-3.63,15.41-9.04,24.49-16.86,5.84-5.02,16.29-14.88,27.58-35.36,3.43-6.22,6.94-13.42,10.42-21.76,5.22-12.52,10.38-27.6,15.12-45.81,22.63-86.99,13.28-159.24,7.17-192.59Zm-42.34,155.88c1.67-4.47,7.24-19.44,8.6-19.02,1.34,.4-1.48,15.62-6.23,29.93-4.65,14.02-11.66,28.63-13.07,28.11-1.65-.59,4.32-21.88,10.69-39.02Z"></path>
            <path class="cls-1" d="M628.4,237.56c-4.65,14.02-11.66,28.63-13.07,28.11-1.65-.59,4.32-21.88,10.69-39.02,1.67-4.47,7.24-19.44,8.6-19.02,1.34,.4-1.48,15.62-6.23,29.93Z"></path>
            <path class="cls-4" d="M676.91,238.36c-2.28-.38,2.8-28.78,4.22-64.67,.11-2.75,.4-10.95,1.34-11,.68-.03,1.4,4.33,1.66,5.87,2.83,17.04-4.11,70.31-7.21,69.8Z"></path>
          </g>
        </g>
        <path class="cls-4" d="M353.66,746.76l-.41-.38c-8.54-7.79-26.5-31.82-34.39-62.99-7-27.65-26.55-141.86-45.98-300.5-1.59-12.97,1.13-26.1,7.72-37.38,3.14-5.37,6.28-10.75,9.42-16.12h0c-1.44,.51-3.04,1.1-4.78,1.76-.33,.12-.68,.25-1.03,.38-.66,.25-1.33,.5-2.03,.77-.1,.04-.21,.07-.32,.12-.38,.15-.76,.29-1.15,.44-.81,.31-1.6,.62-2.39,.93-.41,.16-.82,.31-1.25,.48-.18,.07-.38,.15-.57,.22-2.29,.9-4.73,1.86-7.28,2.9-6.76,2.75-12.84,5.21-20.55,8.79-.04,.02-.08,.04-.13,.06-.23,.1-.47,.21-.71,.32,0,0,0,0-.02,0-13,6.08-26.46,13.46-34.13,22.98-.6,.75-1.1,1.43-1.53,2.03-1.72,2.44-4.98,7.46-8.65,18.33-7.95,23.56-7.62,44.19-7.44,50.54,.15,5.42,3.54,112.67,23.91,213.02,1.37,6.74,4.21,20.22,12.63,35.76,0,0,4.54,8.38,9.91,15.34,8.93,11.6,21.44,19.18,37.71,26.24-2.62,4.15-5.54,9.19-8.46,15.04-8.57,17.2-12.12,31.51-14.49,41.28-2.79,11.55-5.55,26.86-6.29,45.11-1.53-.47-5.86-1.57-10.67,.27-4.59,1.77-6.93,5.2-8.2,7.11-4.36,6.59-5.6,16.47-1.37,23.79,1.47,2.53,4.9,5.06,11.76,10.11,6.64,4.9,9.97,7.35,13.28,8.83,2.26,1.01,6.45,2.49,24.72,2.92,6.68,.16,12.37,.1,16.68,0v42.98c0,8.87,7.19,16.06,16.06,16.06h37.39c-.22-.16-.63-.48-1.09-.94-3.32-3.34-3.01-8.46-3.2-10.16-4.88-42.77,3.34-115.18,3.34-115.18,1.62-14.3,2.8-25.02,10.93-35.54,7.46-9.67,17.2-14.55,23.78-17.06,.14-.05,.27-.1,.41-.16l-.18-.06c-11.46-3.98-21.99-10.25-30.96-18.42Zm-34.48,20.12c-1.66,37.36-8.07,71.14-16.56,100.73-.21,.73-.42,1.48-.64,2.21,0,.03-.02,.05-.02,.07-.72,1.98-1.94,4.15-4.04,5.71-5.91,4.4-16.44,2.28-21.8-2.37-9.93-8.63-4.89-30.32,5.17-73.71,3.36-14.48,6.17-23.68,8.7-31.08,3.83-11.2,7.94-20.96,11.77-29.12,1.92,.71,3.86,1.44,5.85,2.17,3.88,1.43,7.9,2.89,11.99,4.33,.04,6.86-.09,13.88-.41,21.07Z"></path>
      </g>
      <g>
        <path class="cls-4" d="M516.58,559.16c-.86-1.81-5.4-.71-14.68-.56,0,0-2.32,.04-14.11-.56-15.86-.81-32.39-9.9-48.26-18.63-11.54-6.35-13.79-8.62-21.17-10.44-5.88-1.45-14.75-2.55-24.56,.28-7.11,2.05-13.33,5.77-12.98,6.77,.57,1.63,17.33-7.24,34.15-.28,1.21,.5,1.01,.5,7.62,4.23,1.8,1.02,17.09,9.64,26.53,14.39,17.96,9.04,31.55,12.54,34.43,13.27,15.26,3.82,21.94,2.82,26.81-.28,3.66-2.33,7.09-6.33,6.21-8.18Z"></path>
        <path class="cls-4" d="M487.61,584.7c.7-1.14,.23-2.81,.18-2.96-.6-2.01-2.65-3.02-3.39-3.39-5.85-2.88-33.47-6.59-38.38-7.34-6.91-1.05-16.75-4.56-36.41-11.57-1.19-.42-8.93-3.19-19.47-4.52-9.53-1.2-13.57-.24-16.37,.85-7.2,2.81-11.93,9.36-11.01,10.73,1.09,1.61,8.92-5.71,16.13-3.14,6.45,2.3,4.96,9.85,12.66,20.64,8.52,11.94,20.38,16.71,23.57,17.94,7.49,2.9,13.7,3.23,19.05,3.51,13.23,.7,21.69-2.35,24.97-3.71,8.45-3.48,10.12-6.99,10.59-8.15,1.34-3.32-.09-5.06,1.51-6.86,3.65-4.09,14.24,1.46,16.37-2.03Z"></path>
        <path class="cls-4" d="M482.21,594.74c1.72-.2,2.54,.38,2.76,.55,2.12,1.63,1.02,6.1,.85,6.77-1.6,6.29-8.81,9.52-13.55,11.57-4.82,2.09-13.69,5.09-27.1,4.52-12.8-.55-23.58-4.08-23.43-5.08,.16-1.06,12.39,2.97,28.44-1,11.63-2.88,19.43-4.77,23.77-10.85,.99-1.39,3.94-5.98,8.25-6.48Z"></path>
        <path class="cls-4" d="M610.42,556.17c.57-1.19,3.55-.47,9.65-.37,0,0,1.52,.02,9.28-.37,10.42-.53,21.29-6.51,31.72-12.24,7.05-3.88,8.85-6.05,13.91-6.86,1.9-.31,8.06-1.21,14.33,2.24,5.97,3.28,9.46,9.1,8.75,9.88-1.08,1.19-11.02-10.43-20.85-7.66-1.42,.4-1.79,.97-5.01,2.78-1.19,.67-11.24,6.34-17.44,9.46-11.81,5.94-20.74,8.25-22.63,8.72-10.03,2.51-14.42,1.85-17.62-.19-2.41-1.53-4.66-4.16-4.08-5.38Z"></path>
        <path class="cls-4" d="M619.24,585.04c-.5-.82-.16-2.03-.13-2.14,.43-1.45,1.91-2.18,2.44-2.44,4.23-2.08,24.16-4.76,27.71-5.3,4.99-.76,12.09-3.29,26.28-8.35,.86-.31,6.44-2.3,14.06-3.26,6.88-.86,9.8-.18,11.82,.61,5.2,2.03,8.61,6.76,7.95,7.74-.79,1.16-6.44-4.12-11.64-2.27-4.65,1.66-3.58,7.11-9.14,14.9-6.15,8.62-14.71,12.06-17.01,12.95-5.41,2.09-9.89,2.33-13.75,2.54-9.55,.51-15.66-1.7-18.03-2.68-6.1-2.51-7.31-5.05-7.64-5.88-.97-2.4,.07-3.66-1.09-4.95-2.64-2.95-10.28,1.06-11.82-1.47Z"></path>
        <path class="cls-4" d="M660.92,608.41c-.13,.14-.59,.62-.7,1.34-.26,1.77,1.86,3.37,2.42,3.78,3.45,2.5,8.46,1.1,11.71,.14,3.31-.98,9.05-3.19,15.58-9.13,6.23-5.66,10.18-11.99,9.69-12.43-.53-.47-5.01,6.72-14.78,11.47-7.13,3.47-11.55,5.6-16.57,4.53-1.58-.34-5.6-1.5-7.35,.3Z"></path>
        <path class="cls-4" d="M674.35,698.02c-5.41,.23-13.21,.54-22.58,.85-20.13,.65-46.59,1.51-71.41,1.13-25.35-.38-53.98-.82-90.04-7.06-23.79-4.12-43.15-9.43-56.45-13.55,.62,1.83,1.6,4.41,3.1,7.34,5.8,11.32,14.09,17.65,20.32,22.3,10.28,7.67,20.63,11.99,28.88,14.49,53.03,.16,106.06,.31,159.09,.47,5.17-1.41,19.56-6.1,26.53-19.47,1.14-2.19,1.96-4.38,2.54-6.49Z"></path>
      </g>
    </g>
  </g>
  <g>
    <path d="M1094.35,444.83c68.93,0,115.74,41.28,126.43,102.83h-86.25c-7.74-17.32-23.22-27.27-41.65-27.27-27.65,0-44.6,22.48-44.6,57.12s16.95,57.13,44.6,57.13c18.43,0,33.91-9.95,41.65-27.28h86.25c-10.69,61.55-57.5,102.83-126.43,102.83-79.97,0-128.99-54.92-128.99-132.68s49.02-132.68,128.99-132.68Z"></path>
    <path d="M1250.24,500.48h81.82v207.88h-81.82v-207.88Zm61.56,100.62c0-50.49,40.53-102.09,88.44-102.09v87.35h-23.22c-29.48,0-44.96,8.47-44.96,36.86l-20.26-22.12Z"></path>
    <path d="M1566.83,500.48h90.31l-133.06,307.39h-89.56l52.34-109.83-86.61-197.55h91.02l39.07,105.42,36.49-105.42Z"></path>
    <path d="M1810.8,497.9c47.91,0,85.88,39.44,85.88,106.52s-37.97,106.51-85.88,106.51c-27.65,0-47.18-12.16-57.13-30.96v127.9h-81.82V500.48h81.82v28.38c9.95-18.79,29.48-30.96,57.13-30.96Zm-27.27,71.51c-16.96,0-30.23,12.16-30.23,35.02s13.27,35.01,30.23,35.01,30.21-12.16,30.21-35.01-13.27-35.02-30.21-35.02Z"></path>
    <path d="M1909.56,568.66v-68.18h141.53v68.18h-141.53Zm25.8-118.31h81.82v174.33c0,9.58,4.43,14.01,15.12,14.01h19.53v69.66h-30.95c-48.66,0-85.51-20.64-85.51-85.14v-172.86Z"></path>
    <path d="M2072.1,604.42c0-66.35,47.18-106.52,109.83-106.52s109.83,40.18,109.83,106.52-47.18,106.51-109.83,106.51-109.83-40.18-109.83-106.51Zm136.74,0c0-24.7-12.54-35.76-26.9-35.76s-26.92,11.06-26.92,35.76,12.17,35.75,26.92,35.75,26.9-11.05,26.9-35.75Z"></path>
    <path class="cls-2" d="M2477.5,536.6c-6.26-9.95-18.06-16.21-35.01-16.21-31.7,0-49.39,22.48-49.39,57.12,0,40.54,18.43,60.82,58.6,60.82,18.43,0,33.54-6.64,45.71-22.86h-65.24v-57.86h133.06v81.82c-18.06,31.33-54.92,70.76-122.37,70.76-82.2,0-132.69-54.92-132.69-132.68s50.12-132.68,131.96-132.68c69.28,0,113.88,36.11,121.62,91.77h-86.25Z"></path>
    <path class="cls-2" d="M2674.68,610.68c0,19.91,11.42,32.07,29.11,32.07s29.11-12.16,29.11-32.07l5.53,56.02c-9.95,22.12-32.43,43.12-69.3,43.12-47.91,0-75.93-35.02-75.93-88.83v-120.52h81.47v110.2Zm140.05,97.67h-81.82v-207.88h81.82v207.88Z"></path>
    <path class="cls-2" d="M3011.52,536.6c-6.26-9.95-18.06-16.21-35.01-16.21-31.7,0-49.39,22.48-49.39,57.12,0,40.54,18.43,60.82,58.6,60.82,18.43,0,33.54-6.64,45.71-22.86h-65.24v-57.86h133.06v81.82c-18.06,31.33-54.92,70.76-122.37,70.76-82.2,0-132.69-54.92-132.69-132.68s50.12-132.68,131.96-132.68c69.28,0,113.88,36.11,121.62,91.77h-86.25Z"></path>
    <path class="cls-2" d="M3208.7,610.68c0,19.91,11.42,32.07,29.11,32.07s29.11-12.16,29.11-32.07l5.53,56.02c-9.95,22.12-32.44,43.12-69.3,43.12-47.91,0-75.93-35.02-75.93-88.83v-120.52h81.47v110.2Zm140.05,97.67h-81.82v-207.88h81.82v207.88Z"></path>
  </g>
</svg>
